<?xml version="1.0" standalone="no"?>
<!DOCTYPE svg PUBLIC "-//W3C//DTD SVG 1.1//EN" "http://www.w3.org/Graphics/SVG/1.1/DTD/svg11.dtd" >
<!--
2013-9-30: Created.
-->
<svg>
<metadata>
Created by iconfont
</metadata>
<defs>

<font id="iconfont" horiz-adv-x="1024" >
  <font-face
    font-family="iconfont"
    font-weight="500"
    font-stretch="normal"
    units-per-em="1024"
    ascent="896"
    descent="-128"
  />
    <missing-glyph />
    
    <glyph glyph-name="x" unicode="x" horiz-adv-x="1001"
d="M281 543q-27 -1 -53 -1h-83q-18 0 -36.5 -6t-32.5 -18.5t-23 -32t-9 -45.5v-76h912v41q0 16 -0.5 30t-0.5 18q0 13 -5 29t-17 29.5t-31.5 22.5t-49.5 9h-133v-97h-438v97zM955 310v-52q0 -23 0.5 -52t0.5 -58t-10.5 -47.5t-26 -30t-33 -16t-31.5 -4.5q-14 -1 -29.5 -0.5
t-29.5 0.5h-32l-45 128h-439l-44 -128h-29h-34q-20 0 -45 1q-25 0 -41 9.5t-25.5 23t-13.5 29.5t-4 30v167h911zM163 247q-12 0 -21 -8.5t-9 -21.5t9 -21.5t21 -8.5q13 0 22 8.5t9 21.5t-9 21.5t-22 8.5zM316 123q-8 -26 -14 -48q-5 -19 -10.5 -37t-7.5 -25t-3 -15t1 -14.5
t9.5 -10.5t21.5 -4h37h67h81h80h64h36q23 0 34 12t2 38q-5 13 -9.5 30.5t-9.5 34.5q-5 19 -11 39h-368zM336 498v228q0 11 2.5 23t10 21.5t20.5 15.5t34 6h188q31 0 51.5 -14.5t20.5 -52.5v-227h-327z" />
    

    
    <glyph glyph-name="jiaoshiguanli" unicode="&#58893;" d="M233.35936 351.56864c-59.331584 0-107.444224-48.086016-107.444224-107.377664l0-289.577984c0-59.358208 48.11264-107.437056 107.444224-107.437056l248.777728 0-164.41344 504.392704L233.35936 351.56864zM785.732608 351.56864l-84.272128 0L537.1136-152.825088l248.619008 0c59.32544 0 107.437056 48.078848 107.437056 107.437056L893.169664 244.189952C893.170688 303.482624 845.058048 351.56864 785.732608 351.56864zM812.25728 14.228224 676.328448 14.228224c-8.283136 0-15.021056 6.771712-15.021056 15.086592 0 8.249344 6.73792 15.014912 15.021056 15.014912l135.928832 0c8.308736 0 15.014912-6.764544 15.014912-15.014912C827.272192 20.999936 820.56704 14.228224 812.25728 14.228224zM708.132864 555.679488c0 109.694976-88.846336 198.513664-198.540288 198.513664-109.595648 0-198.573056-88.819712-198.573056-198.513664 0-109.56288 88.978432-198.50752 198.573056-198.50752C619.287552 357.170944 708.132864 446.116608 708.132864 555.679488zM509.52704 325.40032 412.464128 243.932928 509.52704-53.828864 606.655488 243.932928Z"  horiz-adv-x="1024" />

    
    <glyph glyph-name="renyuanguanli" unicode="&#58952;" d="M440.582 746.382c83.087-0.057 168.017-70.679 195.704-162.731 24.512-81.484-5.331-163.072-81.662-223.267-67.653-53.355-140.948-57.824-216.753-13.223-141.504 83.258-137.365 280.766 9.094 369.708C374.494 733.585 404.245 742.659 440.582 746.382 441.479 744.09 439.681 748.675 440.582 746.382zM356.365-64.579c-76.171 8.698-152.342 17.406-228.518 26.115-0.846 0.094-1.693 0.229-2.53 0.406-64.888 13.874-67.838 18.684-47.961 79.964 13.418 41.367 26.129 82.997 40.851 123.901 23.425 65.091 73.32 98.839 139.796 102.224 77.498 3.948 155.343 1.583 233.027 0.925 26.776-0.229 31.416-9.503 19.972-33.962-2.886-6.171-6.108-12.233-9.701-18.019-45.391-73.063-60.106-150.796-39.113-235.267 8.614-34.644 1.854-41.188-33.57-41.889-17.923-0.351-35.861-0.08-53.793-0.091-5.972-0.005-11.946 0-17.919 0C356.726-61.709 356.545-63.146 356.365-64.579zM499.362 125.161c13.253 3.405 26.285 7.25 39.539 10.044 20.704 4.359 23.545 14.631 10.862 30.438-8.001 9.98-16.429 19.621-26.445 31.528 10.644 14.393 21.677 29.252 32.634 44.164 10.566 14.365 21.06 28.786 32.885 44.973 13.924-10.422 26.506-20.181 39.442-29.447 20.173-14.456 33.798-10.95 43.854 12.251 5.362 12.368 8.509 25.699 13.379 40.831 25.765 0 52.16 1.15 78.315-0.879 5.907-0.456 13.318-11.121 16.024-18.546 19.871-54.576 22.087-55.387 68.674-19.063 5.958 4.647 12.257 8.859 20.008 14.426 21.962-29.485 43.166-57.962 67.577-90.741-9.424-7.451-18.829-13.539-26.585-21.278-21.857-21.803-19.161-31.461 10.142-39.15 12.311-3.229 24.681-6.227 37.639-9.481 0-29.877 0-58.684 0-88.384-14.479-4.13-28.511-7.304-41.934-12.145-23.55-8.49-26.29-22.586-8.072-39.134 8.118-7.375 16.841-14.084 25.002-20.853-29.621-28.5-58.432-56.229-89.579-86.196-6.157 5.506-15.893 14.524-25.974 23.152-18.61 15.913-34.894 9.78-39.233-14.65-1.043-5.887-1.804-11.825-2.666-17.743-0.736-5.04-1.438-10.086-2.419-16.99-28.796 0-57.308 0-88.037 0-2.74 12.682-5.046 25.936-8.522 38.866-5.041 18.74-16.255 25.67-34.363 15.247-16.265-9.358-32.242-19.225-50.902-30.398-22.343 28.866-45.009 58.148-68.483 88.478 9.363 8.071 17.962 14.966 25.983 22.482 18.865 17.688 16.27 29.52-8.752 38.333-12.728 4.484-25.937 7.619-39.991 11.668C499.362 66.22 499.362 94.971 499.362 125.161zM842.321 82.509c-0.311 64.091-51.979 115.439-115.634 114.923-63.916-0.516-114.537-52.221-114.086-116.516 0.45-64.041 51.859-114.751 116.04-114.47C792.847-33.264 842.632 17.566 842.321 82.509z"  horiz-adv-x="1024" />

    
    <glyph glyph-name="27" unicode="&#58881;" d="M614.592-142.24 92.352-142.24c-12.992 0-23.36 11.072-22.592 24.128 2.88 51.584 13.696 172.032 52.8 227.584 58.944 83.968 253.632 54.976 308.224 130.176 6.016 8.32 7.104 30.336 7.04 47.488-0.064 6.4-2.752 12.544-7.552 16.832C383.68 345.824 352 419.168 351.296 489.824 349.824 628.448 370.176 743.712 513.664 743.712c139.008 0 160.448-114.112 160.448-251.648 0-72.128-31.936-145.92-78.656-187.968C590.784 299.872 588.032 293.856 587.968 287.52 587.648 270.432 588.416 247.968 594.56 239.584c5.504-7.36 12.224-13.696 20.096-19.392l0-22.656L511.424 197.536 456 197.536l0-55.36 0-125.76 0-55.424 55.424 0 103.168 0L614.592-142.24zM954.24 140.832l-158.4 0L795.84 299.36l-125.76 0 0-158.592-158.72 0 0-125.824 158.592 0 0-158.656 125.632 0 0 158.592 158.656 0L954.24 140.832z"  horiz-adv-x="1024" />

    
    <glyph glyph-name="yonghu" unicode="&#58888;" d="M316.393 491.438c0-108.031 87.577-195.607 195.607-195.607s195.607 87.577 195.607 195.607c0 108.031-87.577 195.607-195.607 195.607-108.031 0-195.607-87.577-195.607-195.607zM628.585 295.371c-33.642-21.574-73.653-34.084-116.586-34.084s-82.944 12.511-116.586 34.085c-146.467-48.789-252.076-186.98-252.076-349.84 0-9.552 0.363-19.020 1.076-28.389h735.168c0.715 9.369 1.076 18.837 1.076 28.389 0 162.861-105.607 301.050-252.077 349.839z"  horiz-adv-x="1024" />

    
    <glyph glyph-name="iconfontjinzhi" unicode="&#58926;" d="M514.355 800.707c-229.1 0-414.822-185.724-414.822-414.824 0-229.097 185.722-414.82 414.822-414.82 229.098 0 414.82 185.724 414.82 414.82C929.175 614.983 743.453 800.707 514.355 800.707zM514.355 723.854c78.158 0 149.915-26.789 207.166-71.335L247.715 178.71699999999998c-44.548 57.25-71.334 129.007-71.334 207.166C176.381 572.539 327.697 723.854 514.355 723.854zM514.355 47.91300000000001c-77.199 0-148.123 26.17-205.027 69.731l473.267 473.269c43.562-56.907 69.732-127.83 69.732-205.029C852.327 199.22699999999998 701.011 47.91300000000001 514.355 47.91300000000001z"  horiz-adv-x="1024" />

    
    <glyph glyph-name="weibiaoti102" unicode="&#58897;" d="M242.871792 469.333339l229.743587-229.743587c13.128205-13.128205 32.820512-26.25641 59.076922-26.25641 19.692307 0 39.384615 6.564102 59.076922 26.25641l223.179484 223.179484c19.692307 19.692307 19.692307 45.948717 0 65.641025-6.564102 6.564102-19.692307 13.128205-32.820512 13.128205s-26.25641-6.564102-32.820512-13.128205L571.076916 357.743596 571.076916 850.051283C571.076916 876.307693 551.384609 896 525.128199 896 498.871789 896 479.179481 876.307693 479.179481 850.051283l0-492.307686L308.512817 534.974363C295.384612 541.538466 282.256407 548.102568 275.692304 548.102568 262.564099 548.102568 249.435894 541.538466 242.871792 534.974363 229.743587 528.410261 229.743587 515.282056 229.743587 502.153851 229.743587 489.025646 229.743587 482.461544 242.871792 469.333339zM859.897425 777.846155c-26.25641 0-45.948717-19.692307-45.948717-45.948717 0-26.25641 19.692307-45.948717 45.948717-45.948717 52.51282 0 98.461537-45.948717 98.461537-98.461537l0-525.128199c0-52.51282-45.948717-98.461537-98.461537-98.461537L190.358972-36.10255299999994c-52.51282 0-98.461537 45.948717-98.461537 98.461537l0 525.128199c0 52.51282 45.948717 98.461537 98.461537 98.461537 26.25641 0 45.948717 19.692307 45.948717 45.948717 0 26.25641-19.692307 45.948717-45.948717 45.948717C85.333332 777.846155 0 692.512823 0 587.487183l0-525.128199c0-105.02564 85.333332-190.358972 190.358972-190.358972l669.538453 0c105.02564 0 190.358972 85.333332 190.358972 190.358972l0 525.128199C1050.256397 692.512823 964.923065 777.846155 859.897425 777.846155z"  horiz-adv-x="1051" />

    
    <glyph glyph-name="xitongcanshu" unicode="&#59216;" d="M691.270455 374.230632l-29.877471 0c-5.368264-19.330254-5.105275-42.766013-14.938224-59.754942l25.616424-24.734334c19.549242-19.417235 19.549242-50.928926 0-70.346161l-17.680684-17.59268c-19.549242-19.431561-51.233871-19.431561-70.768787 0l-26.798343 37.981033c-17.054421-9.650801-40.410362-24.647353-59.754942-29.877471l0-29.876448c0-27.478841-17.185404-59.755965-44.816718-59.755965l-29.876448 0c-27.64564 0-44.816718 32.277124-44.816718 59.755965l0 29.876448c-19.358907 5.244444-42.262546 12.801561-59.316967 22.445198l-30.722722-30.54876c-19.549242-19.431561-51.220568-19.431561-70.768787 0l-17.696034 17.59268c-19.549242 19.418258-19.549242 50.929949 0 70.346161l30.54876 30.373775c-9.847276 16.995069-10.999518 34.786271-16.367783 54.116525l-44.816718 0c-27.64564 0-44.815695 17.337877-44.815695 44.815695l-0.01535 30.322609c0 27.470655 17.185404 44.370557 44.831045 44.370557l44.816718 0c5.178953 19.147082 5.615904 42.73736 15.186887 59.630099l-29.366841 29.191856c-19.549242 19.439748-19.549242 50.928926 0 70.346161l17.696034 17.600867c19.549242 19.424398 51.220568 19.424398 70.768787 0l28.783557-28.630061c17.60803 10.197246 41.154305 10.737552 61.256132 16.185634L377.559567 702.880767c0 27.462468 17.171078 44.815695 44.816718 44.815695l29.876448 0c27.631314 0 44.816718-17.353227 44.816718-44.815695l0-44.815695c20.088524-5.449106 40.161698-5.988388 57.755402-16.185634l28.797883 28.630061c19.534915 19.424398 51.220568 19.424398 70.768787 0l17.680684-17.600867c19.549242-19.417235 19.549242-50.906413 0-70.346161l-29.352515-29.191856c9.570983-16.893762 13.495362-40.483017 18.673292-59.630099l29.877471 0c27.630291 0 59.754942-17.337877 59.754942-44.815695l0-29.877471C751.025397 391.568509 718.900745 374.230632 691.270455 374.230632zM437.430142 568.293489c-74.196863 0-134.345778-60.20622-134.345778-134.476761 0-74.255191 60.148915-134.462434 134.345778-134.462434 74.197886 0 134.345778 60.20622 134.345778 134.462434C571.77592 508.087269 511.628028 568.293489 437.430142 568.293489zM437.430142 374.121138c-32.998555 0-59.754942 26.799366-59.754942 59.864436 0 33.035394 26.755364 59.83476 59.754942 59.83476 32.999578 0 59.755965-26.799366 59.755965-59.83476C497.185085 400.919481 470.429721 374.121138 437.430142 374.121138zM876.136859-28.186578l-16.017812 0c-2.611477-9.366322-6.345522-18.250666-11.116175-26.493397l14.808264-14.734586c9.482979-9.408277 9.482979-24.698518 0-34.122145l-8.578376-8.520047c-9.482979-9.423627-24.843828-9.423627-34.326806 0l-14.909571 14.808264c-8.271384-4.669346-17.170055-8.315386-26.550703-10.868535l0-15.449877c0-13.319353-10.868535-24.12956-24.275893-24.12956l-12.137435 0c-13.407358 0-24.27487 10.810207-24.27487 24.12956l0 15.449877c-9.380648 2.553149-18.279319 6.200212-26.551726 10.868535l-14.908548-14.808264c-9.482979-9.423627-24.843828-9.423627-34.326806 0l-8.578376 8.520047c-9.482979 9.423627-9.482979 24.712845 0 34.122145l14.807241 14.734586c-4.770653 8.242731-8.505721 17.126053-11.116175 26.493397l-16.017812 0c-13.407358 0-24.275893 10.809183-24.275893 24.128537l0 12.06478c0 13.320377 10.868535 24.12956 24.275893 24.12956l15.8285 0c2.509147 9.278317 6.098905 18.11866 10.737552 26.318412l-14.238282 14.150278c-9.482979 9.42465-9.482979 24.698518 0 34.123168l8.578376 8.541537c9.482979 9.416464 24.843828 9.416464 34.326806 0l13.960966-13.895475c8.535397 4.945639 20.132526 16.252149 29.892821 18.899442l0 14.939247c0 13.326517 16.470113 14.939247 29.876448 14.939247l0 0c13.407358 0 29.877471-1.611707 29.877471-14.939247l0-14.939247c9.743922-2.647293 17.505699-13.953803 26.040073-18.899442l13.96199 13.895475c9.482979 9.416464 24.843828 9.416464 34.326806 0l8.578376-8.541537c9.482979-9.42465 9.482979-24.698518 0-34.123168l-14.238282-14.150278c4.638647-8.199753 8.227382-17.039072 10.736529-26.318412l15.8285 0c13.407358 0 24.275893-10.809183 24.275893-24.12956l0-12.06478C900.411729-17.377394 889.543194-28.186578 876.136859-28.186578zM750.967068 60.481881c-32.984229 0-59.740616-26.755364-59.740616-59.813271 0-33.028231 26.755364-59.812247 59.740616-59.812247 32.998555 0 59.739593 26.784016 59.739593 59.812247C810.706661 33.726517 783.965623 60.481881 750.967068 60.481881zM750.967068-29.207837c-16.499789 0-29.877471 13.392008-29.877471 29.9358 0 16.514115 13.377682 29.92045 29.877471 29.92045s29.876448-13.407358 29.876448-29.92045C780.844539-15.815829 767.466857-29.207837 750.967068-29.207837z"  horiz-adv-x="1024" />

    
    <glyph glyph-name="zhongzhi" unicode="&#59132;" d="M512.000512 662.127462l0 84.319407L360.002702 612.145094l151.997809-134.302799 0 90.710978c111.644753 0 202.153116-90.506317 202.153116-202.153116s-90.508363-202.154139-202.153116-202.154139c-111.646799 0-202.153116 90.50734-202.153116 202.154139 0 26.831089 5.239328 52.435233 14.731516 75.861782l-88.034009 31.943526c-13.08297-33.403784-20.272719-69.7639-20.272719-107.805308 0-163.325809 132.401496-295.728328 295.727305-295.728328 163.326832 0 295.729351 132.402519 295.729351 295.728328C807.727817 529.724942 675.325297 662.127462 512.000512 662.127462zM509.123998 360.947981m-60.259432 0a58.887 58.887 0 1 1 120.518864 0 58.887 58.887 0 1 1-120.518864 0Z"  horiz-adv-x="1024" />

    
    <glyph glyph-name="shoushidianji0-copy" unicode="&#58890;" d="M764.002966 432.694025c-3.959172 0-13.988596-1.372254-24.295336-4.582365-2.63706 35.18843-32.030507 63.003939-67.772546 63.003939-16.313547 0-31.290657-5.785773-43.014676-15.423271-9.574053 26.0237-34.56319 44.638663-63.794955 44.638663-17.002232 0-34.484396-5.215792-48.543599-15.307637l0 70.768787c40.278355 22.457478 67.621097 65.543785 67.621097 114.951055 0 72.488964-58.795081 131.452891-131.078361 131.452891-72.284303 0-131.079384-58.96495-131.079384-131.452891 0-48.631604 26.53126-91.085508 65.784262-113.819279l0.695848-307.268152-55.923684 58.865689c-15.049764 15.102976-34.95614 23.421432-56.04955 23.421432s-41.000809-8.318456-56.04955-23.421432c-31.104415-31.193443-31.176047-81.893148-0.704035-112.427582 0.508583-0.562818 51.155077-57.20077 123.43017-129.680525l11.758812-11.839653c68.521606-69.092611 127.700427-128.769782 246.13891-128.769782 122.617665 0 163.646104 61.71969 195.151655 124.927267 30.320563 60.810994 30.668487 293.65511 30.668487 303.533085C826.942437 405.3871 797.531594 432.694025 764.002966 432.694025zM770.215458 83.80187000000001c-29.661553-59.517535-62.860676-108.782565-169.09214-108.782565-106.322537 0-158.912289 53.026704-225.490637 120.15866l-11.803837 11.891841c-71.668273 71.872934-121.833813 127.959324-122.885771 129.10031-9.520841 9.55768-14.763239 22.278399-14.727423 35.820833 0.035816 13.540388 5.313006 26.281573 14.888082 35.876092 9.53926 9.582239 22.13616 14.860453 35.447327 14.860453 13.319353 0 25.898857-5.278213 35.19764-14.603603l80.878029-85.129866c4.136204-4.340865 10.484795-5.697769 15.975856-3.476171 5.536087 2.229784 9.147334 7.612375 9.138124 13.58746l-1.016143 447.591061c0 20.210297 9.565866 43.969421 36.534078 43.969421 31.728632 0 34.18866-33.378202 34.18866-43.666522l0-272.650727c0-8.067746 6.525624-14.611789 14.567787-14.611789 8.04114 0 14.566764 6.544043 14.566764 14.611789L516.581854 447.297628c0 32.148188 29.028127 43.817971 48.543599 43.817971 21.421892 0 38.841633-17.473977 38.841633-38.950104l0-53.552683c0-8.068769 6.526647-14.611789 14.558577-14.611789 8.04114 0 14.567787 6.544043 14.567787 14.611789l0 24.338315c0 21.476127 17.419741 38.950104 38.841633 38.950104 21.416775 0 38.835494-17.472953 38.835494-38.950104l0-63.287395c0-8.068769 6.526647-14.612813 14.566764-14.612813 8.032954 0 14.558577 6.545066 14.558577 14.612813l0 37.183877c5.820566 2.852978 17.248849 6.633071 24.108071 6.633071 17.374716 0 33.815153-14.202467 33.815153-29.216415C797.817096 308.86271899999997 792.841781 129.18959299999995 770.215458 83.80187000000001z"  horiz-adv-x="1024" />

    
    <glyph glyph-name="naozhong1" unicode="&#58894;" d="M880.048 448.33c4.824-24.030 7.418-48.879 7.418-74.32 0-107.088-45.033-203.435-116.964-271.838l90.294-90.294c8.897-8.897 8.897-23.279 0-32.176s-23.279-8.897-32.176 0l-93.116 93.116c-62.51-46.444-139.674-74.274-223.505-74.274-84.173 0-161.633 28.035-224.233 74.82l-91.090-91.090c-8.533-8.533-22.369-8.533-30.879 0-8.533 8.511-8.533 22.346 0 30.879l88.383 88.405c-72.317 68.426-117.646 165.046-117.646 272.452 0 25.441 2.594 50.29 7.418 74.342-45.943 35.339-75.685 90.726-75.685 153.213 0 106.815 86.608 193.422 193.422 193.422 55.865 0 106.041-23.825 141.358-61.713 34.497 10.468 71.043 16.202 108.954 16.202s74.433-5.734 108.954-16.202c35.317 37.888 85.493 61.713 141.358 61.713 106.815 0 193.422-86.608 193.422-193.422 0-62.487-29.742-117.874-75.685-153.236zM261.689 749.477c-81.692 0-147.911-66.219-147.911-147.911 0-41.028 16.703-78.097 43.668-104.88 33.587 97.030 105.654 175.832 198.11 218.34-25.6 21.185-58.027 34.452-93.867 34.452zM512 703.966c-182.226 0-329.956-147.729-329.956-329.956 0-182.249 147.729-329.956 329.956-329.956s329.956 147.706 329.956 329.956c0 182.204-147.729 329.956-329.956 329.956zM762.311 749.477c-35.84 0-68.267-13.266-93.867-34.475 92.456-42.507 164.523-121.31 198.11-218.34 26.965 26.806 43.668 63.875 43.668 104.903 0 81.67-66.219 147.911-147.911 147.911zM682.667 339.877h-182.044c-12.584 0-22.756 10.172-22.756 22.756v204.8c0 12.584 10.172 22.756 22.756 22.756s22.756-10.172 22.756-22.756v-182.044h159.289c12.584 0 22.756-10.172 22.756-22.756s-10.172-22.756-22.756-22.756z"  horiz-adv-x="1024" />

    
    <glyph glyph-name="jianhao" unicode="&#58930;" d="M512 0c-211.968 0-384 172.032-384 384s172.032 384 384 384c211.968 0 384-172.032 384-384S723.968 0 512 0zM512 719.872c-185.344 0-335.872-150.528-335.872-335.872s150.528-335.872 335.872-335.872 335.872 150.528 335.872 335.872S697.344 719.872 512 719.872zM295.936 384 295.936 384c0 13.312 10.752 24.064 24.064 24.064l384 0c13.312 0 24.064-10.752 24.064-24.064l0 0c0-13.312-10.752-24.064-24.064-24.064l-384 0C306.688 359.936 295.936 370.688 295.936 384z"  horiz-adv-x="1024" />

    
    <glyph glyph-name="yingyong" unicode="&#59120;" d="M456.843796 420.242436 320.331679 420.242436c-85.923952 0-155.841348 69.917396-155.841348 155.841348s69.917396 155.841348 155.841348 155.841348 155.841348-69.917396 155.841348-155.841348L476.173027 439.571666C476.173027 428.887326 467.528136 420.242436 456.843796 420.242436zM320.331679 693.265646c-64.612577 0-117.182886-52.570309-117.182886-117.182886s52.570309-117.182886 117.182886-117.182886l117.182886 0L437.514565 576.08276C437.514565 640.69636 384.945279 693.265646 320.331679 693.265646zM703.667298 420.242436 567.156204 420.242436c-10.683317 0-19.329231 8.644891-19.329231 19.329231L547.826973 576.08276c0 85.923952 69.917396 155.841348 155.841348 155.841348s155.841348-69.917396 155.841348-155.841348S789.591249 420.242436 703.667298 420.242436zM586.484412 458.900897l117.182886 0c64.612577 0 117.182886 52.570309 117.182886 117.182886s-52.570309 117.182886-117.182886 117.182886-117.182886-52.570309-117.182886-117.182886L586.484412 458.900897zM320.331679 36.075893c-85.923952 0-155.841348 69.917396-155.841348 155.841348s69.917396 155.841348 155.841348 155.841348l136.512117 0c10.68434 0 19.329231-8.644891 19.329231-19.329231l0-136.512117C476.173027 105.993289 406.255631 36.075893 320.331679 36.075893zM320.331679 309.100126c-64.612577 0-117.182886-52.570309-117.182886-117.182886s52.570309-117.182886 117.182886-117.182886 117.182886 52.570309 117.182886 117.182886L437.514565 309.100126 320.331679 309.100126zM703.667298 36.075893c-85.923952 0-155.841348 69.917396-155.841348 155.841348L547.82595 328.429357c0 10.68434 8.644891 19.329231 19.329231 19.329231l136.512117 0c85.923952 0 155.841348-69.917396 155.841348-155.841348S789.591249 36.075893 703.667298 36.075893zM586.484412 309.100126l0-117.182886c0-64.612577 52.570309-117.182886 117.182886-117.182886s117.182886 52.570309 117.182886 117.182886S768.280898 309.100126 703.667298 309.100126L586.484412 309.100126z"  horiz-adv-x="1024" />

    
    <glyph glyph-name="guanlian" unicode="&#58938;" d="M283.79136-92.50815999999998c-62.73024-0.04096-125.41952 23.81824-173.17888 71.53664l-3.62496 3.66592C61.0304 28.590079999999944 35.6352 90.13247999999999 35.6352 155.72992c0 65.59744 25.3952 127.13984 71.49568 173.2608l86.75328 81.2032c15.03232 14.11072 38.72768 13.35296 52.87936-1.76128 14.11072-15.07328 13.33248-38.76864-1.76128-52.89984l-85.85216-80.34304c-31.08864-31.10912-48.66048-73.85088-48.66048-119.48032 0-45.60896 17.57184-88.33024 49.54112-120.25856l3.62496-3.64544c66.21184-66.10944 174.08-66.10944 240.4352 0.14336l186.94144 187.02336c67.91168 68.05504 70.9632 171.6224 6.81984 235.78624l-3.44064 3.44064c-4.77184 4.75136-20.02944 16.5888-34.38592 20.66432-19.8656 5.65248-31.37536 26.37824-25.72288 46.24384 5.69344 19.8656 26.39872 31.35488 46.26432 25.74336 29.85984-8.51968 56.0128-28.9792 66.7648-39.7312l3.44064-3.44064c93.75744-93.83936 90.76736-243.85536-6.79936-341.6064l-186.9824-187.04384C409.25184-68.68992000000003 346.50112-92.50815999999998 283.79136-92.50815999999998M402.04288 259.91168000000005c-9.56416 0-19.16928 3.64544-26.43968 10.9568-94.59712 94.63808-92.73344 233.82016 4.44416 330.9568l186.96192 187.02336c95.4368 95.47776 250.79808 95.55968 346.37824 0l3.54304-3.584c46.03904-46.01856 71.43424-107.52 71.43424-173.09696-0.04096-65.57696-25.41568-127.11936-71.53664-173.19936l-87.87968-81.12128c-15.11424-14.00832-38.85056-13.1072-52.89984 2.10944-13.98784 15.19616-13.04576 38.87104 2.1504 52.89984l86.79424 80.09728c30.86336 30.9248 48.51712 73.64608 48.51712 119.25504 0 45.568-17.59232 88.2688-49.58208 120.25856l-3.54304 3.56352c-66.21184 66.19136-174.12096 66.2528-240.49664-0.08192l-186.94144-187.02336c-67.584-67.56352-69.40672-160.13312-4.44416-225.13664 14.60224-14.60224 14.60224-38.27712 0-52.89984C421.21216 263.55712000000005 411.62752 259.91168000000005 402.04288 259.91168000000005"  horiz-adv-x="1024" />

    
    <glyph glyph-name="jichushuju" unicode="&#58971;" d="M944.253316-69.285409 70.545143-69.285409 70.545143 708.902011c0 16.212238-13.583226 29.357296-30.233633 29.357296-16.650407 0-30.233633-13.145058-30.233633-29.357296l0-836.902011 934.175439 0c16.650407 0 30.233633 13.145058 30.233633 29.357296C974.486949-82.430466 960.903723-69.285409 944.253316-69.285409L944.253316-69.285409zM205.939238 128.766795l81.937527 0c22.784767 0 40.749679-18.403081 40.749679-40.749679l0-81.937527c0-22.784767-18.403081-40.749679-40.749679-40.749679L205.939238-34.67009c-22.784767 0-40.749679 18.403081-40.749679 40.749679l0 81.937527C165.189559 110.363714 183.59264 128.766795 205.939238 128.766795L205.939238 128.766795zM451.751819 210.704322l81.937527 0c22.784767 0 40.749679-18.403081 40.749679-40.749679l0-163.875053c0-22.784767-18.403081-40.749679-40.749679-40.749679l-81.937527 0c-22.784767 0-40.749679 18.403081-40.749679 40.749679L411.002139 169.954643C410.563971 192.301241 428.967052 210.704322 451.751819 210.704322L451.751819 210.704322zM697.12623 333.391528l81.937527 0c22.784767 0 40.749679-18.403081 40.749679-40.749679l0-286.562259c0-22.784767-18.403081-40.749679-40.749679-40.749679l-81.937527 0c-22.784767 0-40.749679 18.403081-40.749679 40.749679L656.376551 292.641849C656.376551 314.988447 674.779632 333.391528 697.12623 333.391528L697.12623 333.391528zM812.802739 663.770646 812.802739 663.770646c-15.774069 16.212238-42.064185 16.212238-57.838254 0l-231.353017-231.353017c-15.774069-15.774069-42.064185-15.774069-57.838254 0l-57.838254 57.838254 0 0-28.919127 28.919127c-15.774069 15.774069-42.064185 15.774069-57.838254 0L205.062901 403.498502c-15.774069-15.774069-15.774069-42.064185 0-57.838254l0 0c15.774069-15.774069 42.064185-15.774069 57.838254 0l57.838254 57.838254c15.774069 15.774069 42.064185 15.774069 57.838254 0l86.757381-86.757381c15.774069-15.774069 42.064185-15.774069 57.838254 0l28.919127 28.919127 0 0 260.710312 260.710312C828.576808 622.14463 828.576808 647.996577 812.802739 663.770646z"  horiz-adv-x="1185" />

    
    <glyph glyph-name="guanxi" unicode="&#59175;" d="M948.822 188.65099999999995c0-43.069-15.261-79.5-45.761-109.289l-79.14-78.604c-29.796-29.787-66.218-44.685-109.289-44.685-43.431 0-80.041 15.261-109.825 45.761l-110.903 111.442c-29.796 29.787-44.685 66.22-44.685 109.289 0 44.145 15.789 81.646 47.376 112.519l-47.376 47.376c-30.871-31.587-68.198-47.376-111.981-47.376-43.07 0-79.678 15.073-109.826 45.222l-111.981 111.981c-30.149 30.15-45.222 66.758-45.222 109.826s15.25 79.494 45.761 109.289l79.14 78.603c29.787 29.787 66.22 44.685 109.289 44.685 43.421 0 80.032-15.26 109.826-45.761l110.903-111.442c29.786-29.796 44.685-66.218 44.685-109.289 0-44.146-15.799-81.654-47.376-112.519l47.376-47.376c30.862 31.579 68.186 47.376 111.981 47.376 43.07 0 79.679-15.073 109.827-45.222l111.981-111.981c30.144-30.149 45.22-66.757 45.22-109.825zM466.982 568.2c0 14.351-5.031 26.557-15.073 36.608l-110.903 111.442c-10.052 10.045-22.258 15.073-36.608 15.073-13.998 0-26.202-4.846-36.608-14.538l-79.14-78.603c-10.052-10.052-15.074-22.074-15.074-36.074 0-14.358 5.022-26.565 15.074-36.608l111.981-111.981c9.692-9.692 21.889-14.538 36.608-14.538 15.074 0 27.996 5.559 38.761 16.689-1.078 1.076-4.492 4.39-10.229 9.961-5.746 5.559-9.607 9.422-11.575 11.575-1.977 2.153-4.666 5.559-8.077 10.229-3.415 4.66-5.746 9.236-6.997 13.727-1.263 4.483-1.885 9.422-1.885 14.804 0 14.351 5.022 26.557 15.074 36.608 10.045 10.045 22.25 15.073 36.608 15.073 5.383 0 10.314-0.63 14.804-1.883 4.483-1.262 9.06-3.591 13.728-6.997 4.659-3.417 8.075-6.106 10.228-8.077 2.153-1.977 6.005-5.838 11.575-11.575 5.559-5.746 8.881-9.152 9.961-10.228 11.843 11.12 17.766 24.228 17.766 39.3zM845.453 188.65099999999995c0 14.352-5.03 26.558-15.073 36.61l-111.981 111.981c-10.052 10.045-22.258 15.073-36.61 15.073-15.073 0-27.996-5.746-38.761-17.227 1.078-1.078 4.483-4.4 10.228-9.961 5.739-5.569 9.596-9.42 11.575-11.574 1.967-2.153 4.66-5.569 8.078-10.229 3.406-4.667 5.735-9.244 6.998-13.727 1.251-4.491 1.882-9.422 1.882-14.804 0-14.358-5.03-26.565-15.073-36.608-10.052-10.051-22.258-15.074-36.61-15.074-5.383 0-10.32 0.622-14.803 1.885-4.492 1.251-9.068 3.584-13.728 6.997-4.666 3.409-8.075 6.098-10.228 8.077-2.153 1.967-6.013 5.829-11.575 11.575-5.568 5.737-8.881 9.152-9.961 10.229-11.844-11.129-17.767-24.229-17.767-39.301 0-14.358 5.022-26.566 15.073-36.61l110.903-111.441c9.691-9.692 21.889-14.538 36.607-14.538 14.351 0 26.559 4.66 36.61 13.998l79.14 78.603c10.047 10.041 15.075 22.07 15.075 36.067z"  horiz-adv-x="1024" />

    
    <glyph glyph-name="remind" unicode="&#59104;" d="M865.696 533.229c-20.192 46.694-47.667 87.411-82.438 122.131-34.758 34.733-75.392 62.182-121.888 82.362-46.502 20.192-96.294 30.278-149.37 30.278-53.075 0-102.867-10.086-149.376-30.272-46.502-20.179-87.123-47.629-121.894-82.362-34.765-34.726-62.234-75.437-82.438-122.131-20.198-46.694-30.291-96.55-30.291-149.587 0-53.030 10.093-102.765 30.291-149.222 20.205-46.47 47.68-87.059 82.438-121.786 34.765-34.726 75.392-62.176 121.888-82.368 46.509-20.179 96.301-30.272 149.382-30.272 53.075 0 102.861 10.093 149.37 30.266 46.496 20.192 87.13 47.642 121.888 82.368 34.758 34.733 62.246 75.322 82.438 121.786 20.205 46.458 30.304 96.198 30.304 149.222 0 53.043-10.093 102.893-30.304 149.587v0 0M512 135.955c-24.013 0-43.469 19.437-43.469 43.43 0 23.981 19.462 43.43 43.469 43.43 24.013 0 43.462-19.45 43.462-43.43 0.006-23.994-19.45-43.43-43.462-43.43v0 0M555.469 316.512c0-23.987-19.456-43.437-43.462-43.437-24.013 0-43.469 19.45-43.469 43.437v272.102c0 23.994 19.462 43.437 43.469 43.437 24.013 0 43.462-19.443 43.462-43.437v-272.102M555.469 316.512v0z"  horiz-adv-x="1024" />

    
    <glyph glyph-name="jiahao" unicode="&#58929;" d="M512 793.31328c113.4592 0 214.95808-46.01856 289.52576-119.808 73.80992-74.56768 119.808-176.90624 119.808-289.52576 0-113.4592-45.99808-214.97856-119.808-289.52576-74.56768-73.80992-176.06656-119.808-289.52576-119.808-112.64 0-214.97856 45.9776-289.52576 119.808C148.70528 169.02144 102.68672 270.5408 102.68672 384c0 112.61952 46.01856 214.95808 119.78752 289.52576C297.02144 747.29472 399.36 793.31328 512 793.31328L512 793.31328zM771.39968 643.3792C705.55648 710.02112 613.53984 751.28832 512 751.28832c-101.53984 0-193.57696-41.2672-259.39968-107.90912C185.97888 577.55648 144.71168 485.53984 144.71168 384c0-101.56032 41.2672-193.55648 107.88864-259.39968 65.82272-66.62144 157.83936-107.88864 259.39968-107.88864 101.53984 0 193.55648 41.2672 259.39968 107.88864 66.62144 65.8432 107.90912 157.83936 107.90912 259.39968C879.3088 485.53984 838.02112 577.55648 771.39968 643.3792L771.39968 643.3792zM299.4176 352.23552c-11.91936 0-21.42208 9.54368-21.42208 21.44256 0 11.10016 9.5232 20.64384 21.42208 20.64384l442.65472 0c11.8784 0 21.4016-9.54368 21.4016-20.64384 0-11.89888-9.5232-21.44256-21.4016-21.44256L299.4176 352.23552zM533.44256 152.35072c0-11.89888-9.54368-21.4016-21.44256-21.4016-11.10016 0-20.62336 9.50272-20.62336 21.4016L491.37664 595.00544c0 11.10016 9.5232 20.62336 20.62336 20.62336 11.89888 0 21.44256-9.5232 21.44256-20.62336L533.44256 152.35072z"  horiz-adv-x="1024" />

    
    <glyph glyph-name="jiantou" unicode="&#59305;" d="M62.564 323.85299999999995h574.282v-240.405l324.802 299.672-324.802 299.714v-240.365h-574.282v-118.616z"  horiz-adv-x="1025" />

    
    <glyph glyph-name="fanhui" unicode="&#58901;" d="M513.311367-64.351378c-247.298316 0-447.799816 200.500477-447.799816 447.797769S266.013051 831.245184 513.311367 831.245184c247.297292 0 447.797769-200.502523 447.797769-447.799816S760.608659-64.351378 513.311367-64.351378L513.311367-64.351378zM513.311367 756.630812c-206.098985 0-373.185444-167.085436-373.185444-373.184421s167.085436-373.185444 373.185444-373.185444c206.096938 0 373.183398 167.085436 373.183398 373.185444S719.408305 756.630812 513.311367 756.630812L513.311367 756.630812zM584.960197 134.862803 391.957485 330.159768l0 0-52.617381 53.286624 52.617381 53.286624 0 0 193.001689 195.352223 52.670593-53.342906L444.630125 383.446391 637.629767 188.094168 584.960197 134.862803 584.960197 134.862803z"  horiz-adv-x="1024" />

    
    <glyph glyph-name="apps-o" unicode="&#59095;" d="M952.537 642.108l-442.035 253.891-440.895-255.867 1.141-509.759 442.035-253.892 440.895 255.867-1.141 509.76zM518.735 835.885l334.616-192.194c10.814-6.212 10.847-21.802 0.059-28.059l-335.517-194.595c-5.025-2.915-11.229-2.915-16.254 0l-332.894 193.075c-10.76 6.241-10.763 21.779-0.004 28.023l333.794 193.713c5.008 2.904 11.182 2.918 16.201 0.037zM142.141 573.362l337.13-195.531c4.996-2.898 8.072-8.237 8.072-14.013v-389.354c0-12.454-13.468-20.249-24.267-14.047l-336.253 193.135c-5.018 2.883-8.118 8.223-8.131 14.011l-0.876 391.752c-0.029 12.5 13.513 20.32 24.325 14.048zM535.94-26.419v392.413c0 5.776 3.076 11.115 8.072 14.013l336.351 195.079c10.786 6.255 24.297-1.508 24.326-13.976l0.876-391.787c0.013-5.788-3.063-11.142-8.068-14.047l-337.227-195.705c-10.8-6.268-24.33 1.524-24.33 14.010z"  horiz-adv-x="1024" />

    
    <glyph glyph-name="fenbanguanli" unicode="&#59030;" d="M149.970128 740.11772l298.884205-803.452955 64.146972 23.336498L214.158033 763.453195 149.970128 740.11772zM829.563124 492.50218c-41.346687 9.650801-141.102668 74.607208-92.554976 184.697559 77.413114 175.630043-9.692756 153.208381-9.692756 153.208381-240.689804-154.954141-463.905632-68.221778-463.905632-68.221778l194.09765-535.01825c48.544623 67.596538 192.144158 185.42513 328.005452 193.161325C921.413042 428.025703 870.912881 482.851379 829.563124 492.50218zM605.808014 450.612117l-70.096475 52.976562-70.133314-52.976562 26.996864 85.445044-70.300113 52.665477 86.773296-0.169869 26.663266 85.525885 26.624381-85.525885 86.816275 0.169869-70.344115-52.665477L605.808014 450.612117z"  horiz-adv-x="1024" />

    
    <glyph glyph-name="shouquan" unicode="&#58912;" d="M906.15657 638.783801C780.06785 710.920748 641.310599 762.265136 513.947863 832.950012 386.283252 761.539612 246.254032 711.709717 120.891859 637.330706c-19.398816-276.365328 137.727805-560.548716 393.419278-700.762131 254.601652 141.001361 413.305187 425.124374 391.845433 702.215226zM780.06785 518.151349L506.188132 248.87958c-6.545066-6.365988-15.153118-9.94142-24.36799-9.94142-9.093099 0-17.701151 3.51608-24.24724 9.882068L304.569182 398.186094c-6.54609 6.486738-10.305717 15.155165-10.42749 24.428365-0.119727 9.276271 3.394307 18.006096 9.943466 24.611538 6.54609 6.731308 15.275915 10.42749 24.731264 10.42749 9.093099 0 17.700127-3.456728 24.247241-9.82067l128.634706-125.663024L731.451596 567.556573c6.54609 6.424316 15.155165 9.94142 24.24724 9.941419 9.455349 0 18.184151-3.638877 24.733311-10.366091 13.456477-13.637602 13.213953-35.582403-0.364297-48.980552z"  horiz-adv-x="1024" />

    
    <glyph glyph-name="banji" unicode="&#58916;" d="M512 896C229.12 896 0 666.88 0 384S229.12-128 512-128s512 229.12 512 512S794.88 896 512 896L512 896zM491.136 498.432c-2.304-22.528-3.328-48.128-3.328-76.544 0-28.672 0.384-52.48 1.408-71.936l-36.096-0.384c1.024 15.36 1.408 37.12 1.408 64.768 0 27.904-1.28 56.32-3.84 85.632L491.136 498.432 491.136 498.432zM302.72 237.312c10.88 0.64 27.904 4.352 50.944 11.008L353.664 378.11199999999997c-17.664 0-32.384-1.024-44.288-2.816l0 41.984c11.52-1.792 26.368-3.072 44.288-3.328l0 112.896c-18.048-0.384-34.048-1.408-48.128-3.328l0 43.392c16.384-2.304 39.68-3.328 70.4-3.328 30.464 0 54.016 1.024 70.4 3.328L446.336 523.52c-15.36 1.792-33.152 3.072-52.992 3.328l0-112.896c15.744 0.384 28.928 1.408 39.552 3.328l0-41.984c-8.576 1.664-21.888 2.432-39.552 2.432l0-116.48c21.888 6.784 38.528 12.672 50.176 17.792-0.64-6.144-1.024-12.288-1.024-18.688 0-6.4 0.384-12.672 1.408-19.456-49.152-17.664-91.904-36.096-128.64-55.552C313.088 200.32000000000005 308.992 217.72799999999995 302.72 237.312L302.72 237.312zM467.968 177.15200000000004c-9.984 8.576-24.832 14.976-44.288 18.816 29.312 21.504 51.968 46.72 68.352 75.52 16.384 28.928 24.576 79.232 24.576 151.296 0 31.104-0.64 65.536-1.664 103.168-1.28 37.632-2.304 60.672-3.712 68.864 9.6-2.304 21.248-3.328 34.56-3.328l14.976 0.384c3.328 0 4.864-1.024 4.864-3.072s-1.408-4.352-4.352-6.528c-5.504-3.84-8.192-19.712-8.192-47.744 0-80.896-0.768-137.856-2.688-170.368-1.792-32.512-8.448-63.104-19.712-91.52C519.424 244.35199999999998 498.432 212.35199999999998 467.968 177.15200000000004L467.968 177.15200000000004zM735.488 190.72000000000003c-16 1.792-48.512 2.816-97.28 2.816s-81.536-1.024-98.304-2.816l0 41.728c20.48-1.792 46.848-3.072 79.104-3.328L619.008 381.952c-18.048-0.384-32-1.28-41.984-2.816l0 41.344c13.056-1.792 27.264-2.816 41.984-2.816l0 112.896c-20.224-0.384-35.2-1.28-44.8-2.816l0 42.752c17.024-2.304 41.6-3.328 73.728-3.328 32.128 0 56.704 1.024 73.728 3.328L721.664 527.36c-16.384 1.792-37.504 2.816-63.104 2.816l0-113.28c22.528 0.384 41.984 1.408 58.368 3.328L716.928 378.88c-12.288 1.792-31.744 2.816-58.368 2.816l0-152.832c31.744 0.384 57.6 1.408 77.056 3.328L735.616 190.72000000000003 735.488 190.72000000000003z"  horiz-adv-x="1024" />

    
    <glyph glyph-name="xuanke" unicode="&#58904;" d="M892.387914 816.620853H847.466396V827.625734C847.466396 864.790335 815.534739 896 777.468148 896h-18.219804c-36.442609 0-66.029291-29.586682-66.029291-66.029291V816.800851H326.631991V828.167729C326.631991 865.511328 296.323317 896 258.79872 896h-15.694831c-37.344599 0-67.833271-30.308674-67.833272-67.833271v-11.364878h-46.905496c-36.622607 0-66.750283-31.391663-66.750283-69.998248v-670.030803c0-38.065591 29.225686-67.833271 66.749283-67.833271h243.369386c13.710853 0 24.896733 11.004882 24.896732 24.715734s-11.18588 24.896733-24.896732 24.896733H128.365121c-9.922893 0-16.958818 7.576919-16.958818 18.219804V585.881331h801.187394v-171.928153c0-13.709853 11.18488-24.895733 24.895732-24.895732s24.715734 11.18588 24.715735 24.896732V746.623605c0.179998 38.065591-31.931657 69.997248-69.81725 69.997248zM743.010518 829.790711c0 9.199901 7.035924 16.236826 16.056828 16.236826h18.220804c10.28289 0 20.024785-8.659907 20.024785-18.401803v-87.136063c0-9.741895-9.560897-18.762798-20.024785-18.762799h-15.875829c-9.921893 0-18.401802 8.659907-18.401803 18.762799V829.790711zM224.703086 827.986731c0 9.921893 8.117913 18.220804 18.220804 18.220804h15.695832c9.921893 0 18.220804-8.117913 18.220804-18.220804v-88.219053c0-9.921893-8.117913-18.220804-18.220804-18.220804H242.92289c-9.921893 0-18.219804 8.117913-18.219804 18.220804v88.219053zM111.587301 635.492798V746.623605c0 9.921893 6.313932 20.024785 16.957818 20.024785h46.725498v-27.06071c0-37.344599 30.308674-67.833271 67.833272-67.833271h15.694831c37.344599 0 67.833271 30.488672 67.833271 67.833271v27.240708h366.76706v-26.519716c0-37.885593 30.489672-68.554264 68.01327-68.554263h15.875829c37.704595 0 69.998248 31.390663 70.178246 68.735262v26.158719h44.921518c10.463888 0 20.385781-9.561897 20.385781-20.024785V635.492798H111.587301zM825.095637 358.02577900000006c-3.787959 0-7.937915-0.179998-12.08687-0.90199-8.298911-1.442984-15.875829-3.968957-22.731756-7.937915-13.169859 12.809862-29.76668 19.844787-48.529479 19.844787-10.643886 0-21.828766-2.344975-33.55464-7.396921-4.329953-1.803981-8.299911-3.787959-12.08787-6.313932-12.808862 9.741895-28.143698 13.890851-41.85455 13.890851-5.231944 0-10.643886-0.539994-16.235826-1.622983-10.102891-2.164977-19.123795-5.051946-27.241707-9.019903-3.607961 9.740895-6.855926 19.663789-10.102892 30.127677-3.607961 11.364878-7.576919 22.911754-11.726874 34.457629-11.725874 32.111655-36.441609 50.513457-66.209288 50.513458-6.313932 0-12.808862-0.90199-18.761799-2.525973-25.076731-6.854926-38.607585-22.009764-44.921517-33.55564-8.117913-13.890851-11.365878-31.029667-9.199901-48.889474 1.081988-9.200901 3.606961-17.499812 5.230943-23.453748l0.540995-1.622983c10.463888-34.45763 20.746777-69.457254 31.029666-104.094882 2.886969-9.922893 6.133934-20.024785 9.020903-30.127676h-2.525972c-12.447866 0-24.895733-2.705971-36.622607-8.118913-32.653649-14.973839-41.673552-39.509576-44.199525-52.498436-2.525973-13.169859-2.705971-39.147579 22.189761-64.946302 3.788959-3.787959 7.757917-7.756917 11.365878-11.18488 6.133934-6.133934 12.08787-11.726874 16.597822-16.958818 47.44649-57.909378 103.011893-115.640758 174.09213-181.850047 15.695831-14.431845 32.834647-21.828766 51.596446-21.828765 8.298911 0 16.77782 1.623983 25.256728 4.329953 16.958818 5.952936 33.736638 11.18488 51.777444 16.596822 7.756917 2.345975 15.153837 4.69095 22.911754 7.035925 7.576919 2.345975 14.612843 4.69095 22.189762 7.035924 18.401802 5.953936 37.524597 12.08787 56.286395 17.67981 24.17474 7.577919 41.313556 23.994742 49.612467 47.989484 35.900614 105.536866 29.405684 214.863692-20.566779 335.014402-12.808862 31.209665-39.509576 50.333459-70.539242 50.333459z m43.659531-368.210045c-3.067967-9.199901-8.299911-13.710853-17.319814-16.597821-26.519715-8.117913-52.679434-16.596822-79.018151-24.534737-25.256729-7.937915-50.694455-15.334835-75.951185-23.994742-3.246965-1.081988-6.313932-1.803981-9.199901-1.803981-6.675928 0-11.726874 2.886969-17.68081 8.299911-60.075355 55.564403-117.444738 113.474781-169.221182 176.798101-9.200901 11.364878-20.386781 21.106773-30.669671 31.389663-14.251847 14.613843-11.725874 28.86569 7.035925 37.344599 5.411942 2.525973 10.824884 3.608961 16.055827 3.608961 8.839905 0 17.499812-3.247965 25.257729-9.381899 4.509952-3.246965 8.117913-7.756917 12.808862-11.364878 4.329953-3.247965 8.839905-5.59294 13.709853-5.59294 2.706971 0 5.412942 0.720992 8.119913 2.344975 8.297911 4.509952 11.544876 12.447866 9.921893 21.468769-1.803981 8.839905-4.69095 17.499812-7.39692 25.978721-17.499812 58.090376-34.818626 116.542748-52.318438 174.814122-1.622983 5.411942-3.246965 10.823884-3.968957 16.236826-1.622983 13.890851 3.247965 24.534736 17.67981 28.503693 2.525973 1.262986 4.149955 1.442984 6.314932 1.442985 10.102891 0 16.055828-8.117913 19.48379-17.499812 8.117913-22.189762 14.432845-44.920517 22.730756-67.110279 10.463888-28.143698 20.386781-56.106397 29.045688-84.611091 1.442984-4.68995 3.607961-9.380899 6.674929-13.529855 3.969957-5.59294 9.381899-8.839905 15.334835-8.839905 2.705971 0 5.411942 0.719992 8.298911 2.163977 9.741895 4.329953 12.447866 12.809862 9.741895 22.36976-2.886969 10.824884-7.396921 21.469769-9.741895 32.473651-3.788959 17.499812 3.246965 26.519715 22.730755 30.128676 2.525973 0.539994 5.051946 0.720992 7.035925 0.720992 11.18588 0 17.319814-6.313932 19.844787-20.565779 2.525973-12.98986 6.133934-25.076731 13.169858-36.442608 3.969957-6.674928 9.380899-9.921893 16.055828-9.921894 2.345975 0 4.69095 0.539994 7.39692 1.442985 9.741895 3.246965 13.349857 11.726874 12.267869 21.829765-0.721992 5.049946-2.344975 9.741895-3.78896 14.612843-3.066967 10.462888-4.509952 20.024785 8.118913 25.256729 5.231944 2.164977 9.921893 3.246965 14.432845 3.246965 6.854926 0 12.98886-2.885969 17.859808-11.18488 6.133934-9.741895 8.839905-20.566779 10.643886-31.932657 1.803981-11.364878 7.396921-18.941797 18.401802-18.941796 0.90199 0 1.803981 0 2.705971 0.179998 13.169859 1.442984 17.67981 10.643886 17.67981 22.911754v1.623982c0 10.462888-3.066967 23.632746 11.545876 25.977721 1.442984 0.179998 2.886969 0.179998 4.329954 0.179998 11.545876 0 19.844787-7.756917 24.535736-19.122794 40.591564-98.501942 54.302417-197.905874 19.302793-300.376774z"  horiz-adv-x="1024" />

    
    <glyph glyph-name="bianji" unicode="&#58884;" d="M567.352265 524.86L222.644888 179.537268l40.620602-40.708657 344.736046 345.352425-40.649271 40.678964z m81.270897-81.388645L303.916809 98.148623l81.242229-81.388644 344.765738 345.294063-81.301614 81.417313zM526.730638 565.541011l-40.621626 40.708657-344.764715-345.322732 40.620603-40.679988L526.730638 565.541011z m414.141136 89.230583L778.358648 817.578575c-22.469163 22.469163-58.802758 22.469163-81.271922 0l-98.071832-98.277633 243.755356-244.19665 98.101524 98.307326c22.439471 22.440495 22.439471 58.862143 0 81.359976zM62.099669-62.573728h172.382357L62.099669 110.102485v-172.676213z m402.245636 0h402.215944v57.539284H464.345305v-57.539284z"  horiz-adv-x="1024" />

    
    <glyph glyph-name="canshu" unicode="&#59249;" d="M435.498667 0H64a64 64 0 0 0 0 128h371.498667c-5.76-20.352-8.832-41.813333-8.832-64s3.072-43.648 8.832-64z m451.669333 0H960a64 64 0 0 1 0 128h-72.832c5.76-20.352 8.832-41.813333 8.832-64s-3.072-43.648-8.832-64zM136.832 554.666667H64a64 64 0 0 0 0 128h72.832C131.072 662.314667 128 640.853333 128 618.666667s3.072-43.648 8.832-64z m451.669333 0H960a64 64 0 0 1 0 128h-371.498667c5.76-20.352 8.832-41.813333 8.832-64s-3.072-43.648-8.832-64zM362.666667 426.666667a192 192 0 1 0 0 384 192 192 0 0 0 0-384z m0 128a64 64 0 1 1 0 128 64 64 0 0 1 0-128z m298.666666-682.666667a192 192 0 1 0 0 384 192 192 0 0 0 0-384z m0 128a64 64 0 1 1 0 128 64 64 0 0 1 0-128z"  horiz-adv-x="1024" />

    
    <glyph glyph-name="xuexiaoguanli" unicode="&#59019;" d="M850.304 342.016V436.928h32.384v32.448h-165.568v-31.168h32.448v-97.216zM89.216 35.648h490.816v-30.4H89.216zM122.24 103.872h420.8v-32.384H122.24zM553.344 434.88h32.32v32.448H420.16v-31.232h32.384v-298.432h100.8zM287.04 137.664V432.832h32.448v36.544H153.984v-33.28h32.384v-298.432zM936 524.032a32 32 0 0 1 10.176 62.4L518.976 833.152a32.128 32.128 0 0 1-32 0L55.104 583.808a32 32 0 0 1 16-59.776h863.68a3.84 3.84 0 0 0 1.216 0z m-745.472 64l312.448 180.416 312.384-180.416H190.528zM779.328 185.024c-41.344 0-75.2-33.728-75.2-75.072a75.2 75.2 0 0 1 150.336 0c0 41.28-33.728 75.072-75.136 75.072z m0-125.376a50.432 50.432 0 0 0-50.304 50.304c0 27.712 22.656 50.24 50.304 50.24a50.304 50.304 0 0 0 0-100.544zM938.496 165.76h-7.36l-0.512 1.344-1.984-0.704 1.728 1.344a98.88 98.88 0 0 1-3.84 8.768l-0.576 1.344 5.12 5.12c9.472 9.664 14.848 22.656 14.848 36.032s-5.376 26.368-14.848 36.032l-6.784 6.656a51.072 51.072 0 0 1-72.064 0l-4.992-5.184-1.344 0.768c-2.752 1.344-6.016 2.496-9.472 3.904l-1.344 0.512v7.36A51.072 51.072 0 0 1 784 320h-9.408a51.072 51.072 0 0 1-51.008-50.944v-7.424l-1.344-0.512c-3.776-1.344-6.656-2.56-9.344-3.904l-1.344-0.768-5.12 5.184a51.008 51.008 0 0 1-72.064 0.064l-6.784-6.656a51.2 51.2 0 0 1 0-72.064l5.184-5.12-0.64-1.344c-1.344-2.624-2.24-5.312-3.776-8.768l-0.832-1.984h-7.232a51.2 51.2 0 0 1-51.008-51.072v-9.6c0-28.032 22.784-50.944 51.008-50.944h7.296l0.768-2.048c1.344-3.456 2.496-6.208 3.776-8.832l0.64-1.344-5.12-5.12a51.2 51.2 0 0 1-0.064-72.064l6.784-6.656a51.2 51.2 0 0 1 72.064 0l5.12 5.184 1.344-0.64c2.816-1.344 5.952-2.496 9.344-4.032l1.344-0.576v-7.296c0-28.032 22.784-51.008 51.008-51.008h9.408a51.2 51.2 0 0 1 51.136 51.008v7.296l1.344 0.576c3.712 1.344 6.656 2.624 9.472 4.032l1.344 0.64 4.928-5.184a51.52 51.52 0 0 1 72.064 0l6.848 6.656a51.136 51.136 0 0 1 0 72.064l-5.12 5.12 0.512 1.344c1.344 2.624 2.368 5.504 3.84 8.832l-1.984 0.896h2.368l0.512 1.344h7.36a50.944 50.944 0 0 1 50.88 51.072v9.472a51.136 51.136 0 0 1-51.008 50.88z m26.752-60.48h-0.256v-0.128h-0.384a27.264 27.264 0 0 0-0.512-5.12 3.84 3.84 0 0 0-0.448-1.344l-0.32-1.28c-0.192-0.64-0.384-1.344-0.768-2.112-0.256-0.896-0.896-1.344-1.344-2.624l-0.256-0.512c-0.192-0.256-0.384-0.768-0.768-1.216a22.4 22.4 0 0 0-2.368-3.136l-0.512-0.576c-1.088-0.896-1.856-1.792-3.584-3.008a26.624 26.624 0 0 0-13.184-5.248h-0.96c-0.384-0.128-0.96-0.128-1.408-0.128h-25.408l-0.448-1.664a143.36 143.36 0 0 0-16.128-38.08l-1.024-1.408 18.304-18.432a25.088 25.088 0 0 0 7.36-15.232c0.192-1.344 0.256-2.88 0.192-4.032l-0.064-1.152a19.52 19.52 0 0 0-0.448-3.712 2.624 2.624 0 0 0-0.64-1.344l-0.256-1.216c-0.128-0.704-0.384-1.344-0.768-2.176s-0.768-1.344-1.344-2.368l-0.256-0.832-0.64-1.344c-1.216-1.408-2.112-2.88-3.52-4.032l-6.656-6.656a24.32 24.32 0 0 0-4.032-3.264 8.064 8.064 0 0 0-1.216-0.896l-0.64-0.32 1.088-1.664-1.6 1.344c-0.64-0.32-1.216-0.896-1.92-1.152-0.768-0.384-1.344-0.512-2.112-0.768l0.704-2.112-1.344 2.048-0.576-0.192c-0.256-0.064-0.704-0.32-1.152-0.384l-3.584-0.512-1.984-0.064a25.408 25.408 0 0 0-18.624 7.552l-18.304 18.368-1.408-1.088a149.76 149.76 0 0 0-38.144-16.128l-1.6-0.448v-25.344c0-0.896-0.128-1.344-0.128-1.6l-0.128-0.768a26.24 26.24 0 0 0-5.376-13.632 24.448 24.448 0 0 0-2.88-3.392c-0.128-0.192-0.384-0.32-0.768-0.64-0.896-0.896-1.856-1.344-2.88-2.176a6.336 6.336 0 0 1-1.28-0.832l-0.96-0.384a14.784 14.784 0 0 0-2.24-1.344 13.44 13.44 0 0 0-2.752-0.768l-0.576-0.256-1.344-0.448a35.584 35.584 0 0 0-5.12-0.512h-9.536a36.48 36.48 0 0 0-5.184 0.512 3.264 3.264 0 0 0-1.344 0.512l-1.152 0.32c-0.64 0.128-1.344 0.384-2.24 0.704l-2.624 1.344-0.512 0.256-1.152 0.64a22.848 22.848 0 0 0-3.136 2.432l-0.704 0.512c-0.96 0.832-1.792 1.856-3.136 3.456a27.2 27.2 0 0 0-5.056 13.248l-0.128 0.896-0.128 1.472v26.24l-1.6 0.448a142.72 142.72 0 0 0-38.144 16.192l-1.28 1.024-18.368-18.432a25.216 25.216 0 0 0-15.168-7.296 21.632 21.632 0 0 0-3.392-0.32l-1.856 0.128a31.808 31.808 0 0 0-3.712 0.512l-1.28 0.32-0.704 0.384-0.576-2.24v2.368a8.96 8.96 0 0 0-2.176 0.832c-0.96 0.32-1.344 0.704-2.496 1.344l-0.64 0.384c-0.576 0.128-0.96 0.512-1.344 0.768-1.344 1.088-2.88 1.984-4.032 3.328l-6.784 6.656a40.768 40.768 0 0 0-3.264 4.032c-0.256 0.512-0.448 0.896-0.832 1.344l-0.512 0.96-1.152 1.92a35.648 35.648 0 0 0-0.832 2.24l-0.448 1.344a2.88 2.88 0 0 0-0.256 1.216 18.368 18.368 0 0 0-0.64 4.032v0.64c0 1.344 0 2.624 0.256 4.352a25.856 25.856 0 0 0 7.168 14.848l18.432 18.432-1.024 1.408a148.416 148.416 0 0 0-16.128 38.144l-0.512 1.6h-24.96c-0.64 0-1.28 0-1.664 0.128l-0.256-2.048-0.192 2.432a26.496 26.496 0 0 0-13.568 5.248c-1.344 1.024-2.24 1.984-3.2 2.88l-0.768 0.896a42.496 42.496 0 0 0-2.112 2.88c-0.384 0.384-0.512 0.896-0.64 1.024l-1.984-0.832 1.536 1.344-0.128 0.576a10.112 10.112 0 0 0-1.216 2.176c-0.512 0.832-0.64 1.408-1.024 2.624l-0.128 0.704c-0.128 0.384-0.32 1.024-0.576 1.344a26.688 26.688 0 0 0-0.512 5.12v9.472c0 1.6 0.192 3.52 0.512 5.184 0.256 0.576 0.448 1.216 0.576 1.344l0.384 1.216c0.128 0.704 0.256 1.408 0.768 2.24 0.32 0.768 0.704 1.344 1.344 2.432l0.32 0.64a12.992 12.992 0 0 0 0.768 1.28c0.704 1.216 1.344 1.856 2.368 3.136l0.512 0.576a21.568 21.568 0 0 0 3.456 3.136 28.16 28.16 0 0 0 13.312 5.12l0.896 0.064a8.832 8.832 0 0 0 1.408 0.128h25.536l0.512 1.6a144.64 144.64 0 0 0 16.128 38.144l1.024 1.344-18.432 18.24a25.6 25.6 0 0 0-7.296 15.232c-0.128 1.472-0.128 2.88-0.128 4.096l0.128 1.088c0 1.344 0.128 2.304 0.512 3.712a3.2 3.2 0 0 0 0.256 1.28l0.448 1.344 0.704 2.112a19.52 19.52 0 0 0 1.28 1.792l0.256 0.704-1.856 1.216 2.24-0.64 0.704 1.344c1.088 1.344 2.048 2.88 3.328 4.032l6.72 6.72c1.28 1.28 2.624 2.24 4.032 3.328a3.84 3.84 0 0 0 1.344 0.768l1.088 0.704a5.568 5.568 0 0 1 1.984 1.152 20.352 20.352 0 0 0 2.112 0.704l1.344 0.448c0.384 0.128 0.768 0.384 1.344 0.384a36.992 36.992 0 0 0 3.84 0.512h0.832l0.96 0.128c1.088 0 2.048-0.128 3.84-0.384a25.856 25.856 0 0 0 14.784-7.168l18.368-18.368 1.344 0.96c12.224 7.36 25.152 12.8 38.144 16.128l1.664 0.512v25.216l0.064 1.408 0.128 0.832a26.688 26.688 0 0 0 8.256 16.832l0.768 0.768 2.88 2.112c0.64 0.384 1.024 0.512 1.344 0.896l0.512 0.32a22.4 22.4 0 0 0 2.496 1.28c0.768 0.448 1.408 0.576 2.048 0.832L768 295.104l1.344 0.384 5.312 0.192h9.536a23.68 23.68 0 0 0 6.464-0.96l1.152-0.512a12.096 12.096 0 0 0 2.24-0.64c0.768-0.448 1.408-0.832 2.624-1.344l0.64-0.512c0.256-0.128 0.704-0.256 1.024-0.512a24.96 24.96 0 0 0 3.2-2.432c0.064-0.128 0.256-0.256 0.704-0.448 1.088-1.024 1.728-1.856 3.008-3.456a28.352 28.352 0 0 0 5.12-13.568l0.128-0.64 0.128-1.408v-25.664l1.536-0.384c13.056-3.2 25.792-8.768 38.208-16.128l1.344-0.96 18.368 18.304a24.768 24.768 0 0 0 15.36 7.232 15.168 15.168 0 0 0 3.328 0.384l0.768-0.128h1.216c1.088-0.128 2.24-0.256 3.712-0.64a4.288 4.288 0 0 0 1.536-0.512l0.768-0.192a5.568 5.568 0 0 0 2.112-0.96c0.96-0.256 1.344-0.64 2.496-1.344l0.832-0.32 1.216-0.768c1.408-1.024 2.752-1.984 4.032-3.264l6.656-6.72a35.2 35.2 0 0 0 4.288-5.376l0.448-0.896 1.088-1.984c0.384-0.896 0.704-1.472 0.832-2.304l0.448-1.216a5.12 5.12 0 0 0 0.32-1.344c0.384-1.344 0.448-2.496 0.576-3.968v-0.896a25.472 25.472 0 0 0-7.36-19.2l-19.136-18.432 1.152-1.408c7.232-12.032 12.736-25.152 16.128-38.016l0.448-1.728h25.536c0.768 0 1.344 0 1.536-0.128h0.832a25.728 25.728 0 0 0 13.504-5.376c1.344-1.024 2.24-1.664 3.456-2.88 0.128-0.128 0.192-0.384 0.64-0.896 0.96-0.832 1.344-1.728 2.112-2.816l0.96-1.536 0.384-0.512 1.152-2.112 0.704-1.984 0.384-1.28c0.064-0.512 0.32-0.96 0.448-1.344a24.32 24.32 0 0 0 0.512-5.12v-9.152z"  horiz-adv-x="1024" />

    
    <glyph glyph-name="xueshimao" unicode="&#58933;" d="M921.5 504.7v-148.2l31.2-31.2-65.1-67.7-65.9 65.7 45.1 41v117c-191.4-78.9-252.7-103.4-295.2-122.6-42.4-19.1-73-19.1-115.1-3.2-42.1 15.9-242.5 89-342 136.6-66.4 31.8-70.7 51.9 1.1 78.9 93.7 35.6 248.6 92.6 330.7 123.7 48.6 19.7 74.3 30.4 118.9 8 79.7-32.9 261.7-101.2 352.2-138.6 79-34.3 26-45.6 4.1-59.4M580.9 300.1c46.3 19.1 108.7 50.7 176.7 79.8v-234s-88-93.6-242.7-93.6c-166.6 0-256.6 93.6-256.6 93.6V364.29999999999995c52.5-21.4 111.5-39.8 182.9-64.2 44-15.7 99.8-21.1 139.7 0m0 0"  horiz-adv-x="1024" />

    
    <glyph glyph-name="qidong" unicode="&#59056;" d="M512-64c-247.424 0-448 200.512-448 448s200.576 448 448 448c247.488 0 448-200.512 448-448s-200.512-448-448-448zM512 757.12v0.256C297.92 757.312 138.88 589.696 138.88 384S306.304 10.879999999999995 512 10.879999999999995s373.12 167.36 373.12 373.12S717.76 757.12 512 757.12z m-66.048-554.816a26.88 26.88 0 0 0-30.336-0.832 35.456 35.456 0 0 0-15.424 29.952V574.0160000000001c0 12.416 5.888 23.872 15.424 29.952a26.88 26.88 0 0 0 30.4-0.896l238.912-171.328c8.64-6.272 13.952-17.28 13.952-29.056s-5.312-22.784-14.016-28.992l-238.912-171.392z"  horiz-adv-x="1024" />

    
    <glyph glyph-name="tongyong" unicode="&#58954;" d="M512 725.333333C323.477333 725.333333 170.666667 572.522667 170.666667 384s152.810667-341.333333 341.333333-341.333333 341.333333 152.810667 341.333333 341.333333S700.501333 725.333333 512 725.333333z m0-640c-164.949333 0-298.666667 133.717333-298.666667 298.666667s133.717333 298.666667 298.666667 298.666667 298.666667-133.717333 298.666667-298.666667-133.717333-298.666667-298.666667-298.666667z m202.218667 469.333334c-88.149333-28.096-255.637333-209.024-255.637334-209.024l-94.08 71.274666-44.458666-33.088 171.882666-170.517333S565.994667 395.434667 725.333333 532.629333c-4.053333 9.877333-7.232 14.421333-11.114666 22.037334z"  horiz-adv-x="1024" />

    
    <glyph glyph-name="daoru" unicode="&#58970;" d="M464.005999 848.005999C464.005999 874.434696 485.635296 896 512 896s47.994001-21.565304 47.994001-47.994001v-481.027871h167.979002L512 205.398325 296.026997 366.97812799999997H464.005999V848.005999zM703.976003 639.392076h127.984002a127.984002 127.984002 0 0 0 127.984002-127.984002v-511.424072a127.984002 127.984002 0 0 0-127.984002-127.984002H192.039995a127.984002 127.984002 0 0 0-127.984002 127.984002V511.408074a127.984002 127.984002 0 0 0 127.984002 127.984002h127.984002v-95.988002H196.583427a36.923385 36.923385 0 0 1-36.539432-37.371328v-500.673416c0-20.669416 16.31796-37.371329 36.539432-37.371329h630.833146a36.923385 36.923385 0 0 1 36.539432 37.371329V506.032746a36.923385 36.923385 0 0 1-36.539432 37.371328H703.976003v95.988002z"  horiz-adv-x="1024" />

    
    <glyph glyph-name="shuaxin" unicode="&#58903;" d="M956.928 258.55999999999995l-100.352 167.424-166.912-100.352c-12.8-7.68-16.896-24.064-9.216-36.864 7.68-12.8 24.064-16.896 36.864-9.216l87.04 52.224c-23.552-139.264-144.896-245.76-290.816-245.76-103.424 0-197.632 52.736-251.904 141.312-7.68 12.8-24.576 16.896-36.864 8.704-12.8-7.68-16.896-24.576-8.704-36.864 64-104.448 175.616-166.912 297.984-166.912 171.52 0 314.368 124.416 343.552 287.744l53.76-89.088c5.12-8.192 13.824-13.312 23.04-13.312 4.608 0 9.728 1.024 13.824 4.096 12.288 7.68 16.384 24.064 8.704 36.864zM348.672 474.624c-7.68 12.8-24.064 16.896-36.864 9.216l-89.088-53.248c23.552 139.776 144.896 246.272 290.816 246.272 101.376 0 194.048-51.2 248.832-136.192 8.192-12.288 24.576-16.384 37.376-8.192 12.288 8.192 16.384 24.576 8.192 37.376-64.512 100.864-174.592 161.28-294.4 161.28-170.496 0-312.832-123.392-343.04-285.696l-52.224 87.04c-7.68 12.8-24.064 16.896-36.864 9.216-12.8-7.68-16.896-24.064-9.216-36.864l100.352-167.424 166.912 100.352c12.8 7.168 16.896 24.064 9.216 36.864z"  horiz-adv-x="1024" />

    
    <glyph glyph-name="kecheng" unicode="&#59107;" d="M944.125 886.415H670.952c-63.9 0-119.813-33.548-156.556-84.668-35.145 51.12-92.655 84.668-156.555 84.668H87.863c-43.133 0-78.278-38.34-78.278-84.668v-781.18c0-46.327 41.535-63.9 84.668-63.9h254.003C386.596-83.27 431.326-128 517.59-128c86.265 0 130.996 44.73 169.336 84.668H940.93c43.132 0 84.668 15.975 84.668 63.9V801.748c-3.196 46.327-38.34 84.667-81.473 84.667z m-6.39-843.482H642.197c6.39 0-43.133-84.668-126.203-84.668s-134.19 84.668-126.203 84.668H94.253V803.345h268.38c63.9 0 111.826-57.51 111.826-126.203v-380.206c0-23.963 20.767-41.535 41.535-41.535 20.767 0 41.535 19.17 41.535 41.535V675.544c0 70.29 47.925 126.203 111.825 126.203h268.38v-758.814z m0 0"  horiz-adv-x="1026" />

    
    <glyph glyph-name="xueshimao1" unicode="&#58887;" d="M931.122 125.49599999999998V469.014l14.004 6.998C954.75 480.384 960 490.885 960 500.508c0 11.378-5.25 19.255-14.004 25.374L524.247 775.336c-8.754 5.25-17.5 5.25-27.122 0L77.995 525.012C68.371 519.762 64 511.885 64 500.507c0-10.501 5.25-20.125 14.874-24.497l183.751-123.604c-2.625-4.373-3.503-8.745-3.503-13.127v-266.815c0-8.754 3.503-25.99 9.624-31.242 5.25-5.25 13.126-6.259 24.505-12.379 11.37-6.129 37.623-18.247 76.994-27 40.257-8.746 86.626-13.118 140-13.118 178.501 0 237.127 43.743 243.255 49.87 6.998 4.373 10.501 23.366 10.501 31.243V342.784c0 3.503 0 7.877-2.625 11.379l113.748 74.854v-303.52c-17.498-10.5-28-27.999-28-48.993 0-28.879 24.497-56 56.001-56 31.503 0 56 25.374 56 56-0.004 21.87-9.626 37.622-28.003 48.992zM708 66.49300000000005c-9.632-4.372-21.881-8.745-35.007-13.126-27.121-7.877-90.12-18.369-162.75-18.369-88.372 0-153.117 10.492-195.121 32.373V304.437l182.004-96.248c3.494-2.624 8.745-3.493 13.118-3.493l13.126 3.493L708 315.55600000000004v-249.063zM510.243 269.30999999999995L149.746 494.73 511.12 709.607 872.496 494.73 510.243 269.30999999999995z"  horiz-adv-x="1024" />

    
    <glyph glyph-name="daima" unicode="&#59565;" d="M63.10934 831.53171v-896.41623h896.41623v896.41623h-896.41623z m845.074911-845.074912H114.450658V780.190391h793.73257v-793.733593h0.001023zM346.738096 248.543935c8.987698-8.987698 29.960359-8.987698 41.945321 0 11.984962 11.984962 8.987698 29.961382 0 38.950104l-101.867062 101.866039 101.867062 101.866039c8.987698 8.987698 8.987698 26.965142 0 38.950104-11.984962 8.987698-32.956599 8.987698-41.945321 0L223.898373 407.336498c-8.987698-8.987698-11.983939-23.967878 0-35.95284l122.839723-122.839723z m398.479526 137.819902l-101.868085-101.866039c-8.987698-8.987698-8.987698-26.964118 0-38.94908 8.988722-8.987698 29.961382-11.983939 41.945321 0l119.843482 119.842459c11.984962 11.984962 8.987698 29.960359 0 35.953863L682.299641 524.183739c-5.992481 14.981203-23.968901 14.981203-35.953863 2.996241-11.983939-11.984962-8.987698-29.960359 0-38.949081l98.871844-101.867062zM457.592856 245.548718c14.981203-5.992481 32.956599 2.995217 38.949081 17.97642l89.883123 233.694483c5.991458 14.980179-2.996241 32.956599-17.97642 38.949081-14.981203 5.991458-32.956599-2.996241-38.950104-17.97642L439.616436 284.497798c-5.992481-14.981203 2.996241-32.957623 17.97642-38.94908z"  horiz-adv-x="1024" />

    
    <glyph glyph-name="banjixueqing" unicode="&#59038;" d="M842.498226 75.574488H177.672562c-19.012006 0-34.388205 15.395642-34.388205 34.389229V660.143271c0 18.99154 15.376199 34.377972 34.388205 34.377972 18.97312 0 34.388205-15.385409 34.388205-34.377972v-515.792373h630.438483c18.97312 0 34.389228-15.393595 34.389228-34.387181-0.002047-18.993586-15.417131-34.389228-34.390252-34.389229z m-80.254835 103.162568h-68.777433c-18.97312 0-34.389228 15.386432-34.389228 34.377972V453.818135c0 19.002796 15.415085 34.387181 34.389228 34.387182h68.777433c19.013029 0 34.390251-15.386432 34.390251-34.387182v-240.703107c-0.001023-18.99154-15.376199-34.377972-34.390251-34.377972z m-194.856943 0H498.610038c-18.993586 0-34.390251 15.386432-34.390251 34.377972V591.367885c0 18.992563 15.396665 34.387181 34.390251 34.387181h68.77641c18.992563 0 34.389228-15.394618 34.389228-34.387181v-378.251834c0-18.992563-15.395642-34.378995-34.389228-34.378995z m-194.856943 0H303.752072c-19.012006 0-34.388205 15.386432-34.388205 34.377972v68.77641c0 18.990516 15.376199 34.386158 34.388205 34.386158h68.777433c18.992563 0 34.389228-15.395642 34.389228-34.386158v-68.77641c-0.001023-18.99154-15.396665-34.377972-34.389228-34.377972z"  horiz-adv-x="1024" />

    
    <glyph glyph-name="lianxiren" unicode="&#58895;" d="M56.558 552.904h169.768c15.626 0 28.295 12.669 28.295 28.295 0 15.626-12.669 28.295-28.295 28.295H56.558c-15.626 0-28.295-12.669-28.295-28.295 0-15.626 12.669-28.295 28.295-28.295zM254.621 184.465c0 15.626-12.669 28.295-28.295 28.295H56.558c-15.626 0-28.295-12.669-28.295-28.295 0-15.626 12.669-28.295 28.295-28.295h169.768c15.626 0 28.295 12.669 28.295 28.295zM56.558 354.537h169.768c15.626 0 28.295 12.669 28.295 28.295 0 15.626-12.669 28.295-28.295 28.295H56.558c-15.626 0-28.295-12.669-28.295-28.295 0-15.626 12.669-28.295 28.295-28.295zM729.994 519.152c0 78.004-63.47 141.474-141.474 141.474s-141.474-63.47-141.474-141.474 63.47-141.474 141.474-141.474 141.474 63.47 141.474 141.474z m-226.358 0c0 46.808 38.076 84.884 84.884 84.884s84.884-38.076 84.884-84.884-38.076-84.884-84.884-84.884-84.884 38.076-84.884 84.884zM333.868 133.332c0-15.626 12.669-28.295 28.295-28.295 15.626 0 28.295 12.669 28.295 28.295 0 78.004 88.849 141.474 198.063 141.474s198.063-63.47 198.063-141.474c0-15.626 12.669-28.295 28.295-28.295 15.626 0 28.295 12.669 28.295 28.295 0 109.214-114.243 198.063-254.653 198.063s-254.653-88.849-254.653-198.063zM867.392 892.137H221.905c-48.272 0-87.537-38.076-87.537-84.884v-84.884c0-15.626 12.669-28.295 28.295-28.295s28.295 12.669 28.295 28.295V807.252c0 15.598 13.885 28.295 30.947 28.295h645.487c17.063 0 30.934-12.697 30.934-28.295V-41.59c0-15.598-13.871-28.295-30.934-28.295H221.905c-17.063 0-30.947 12.697-30.947 28.295v84.884c0 15.626-12.669 28.295-28.295 28.295s-28.295-12.669-28.295-28.295v-84.884c0-46.808 39.264-84.884 87.537-84.884h645.487c48.259 0 87.523 38.076 87.523 84.884V807.252c0 46.808-39.264 84.885-87.523 84.885z"  horiz-adv-x="1024" />

    
    <glyph glyph-name="naozhong" unicode="&#58910;" d="M511.5 797.1c-229 0-414.6-185.8-414.6-415s185.6-415 414.6-415c229 0 414.6 185.8 414.6 415 0.1 229.2-185.6 415-414.6 415z m0.2-767.7c-194.6 0-352.3 157.9-352.3 352.6 0 194.7 157.8 352.6 352.3 352.6C706.3 734.6 864 576.7 864 382c0-194.7-157.8-352.6-352.3-352.6zM119.5 591.6c-13.8 17.8-22 40.1-22 64.4 0 58.1 47.1 105.2 105.1 105.2 18.3 0 35.6-4.7 50.6-13 0 0-41.9-31.3-77.9-73.4-29.5-34.8-55.8-83.2-55.8-83.2zM905 591.6c13.8 17.8 22 40.1 22 64.4 0 58.1-47.1 105.2-105.1 105.2-18.3 0-35.6-4.7-50.6-13 0 0 52-48.2 74-73.9 24.9-29.3 59.7-82.7 59.7-82.7zM674.1 355.6l-162.4-1.4c-16.5 0-29.9 13.5-29.9 30l0.3 240.8c0 16.6 13.4 30 30 30s30-13.5 30-30l-0.3-210.9 132.4 1.5c16.6 0 30-13.5 29.9-30.1 0-16.5-13.4-29.9-30-29.9z"  horiz-adv-x="1024" />

    
    <glyph glyph-name="peizhi" unicode="&#58911;" d="M914.6 330L552.3 169.79999999999995c-34.7-14.9-48.5-14.9-80.5 0L109.5 330c-19.2 10-24.4 47.2-24.4 67.5 24.2-13.6 58.2-28.7 57-27.9l370-167.8 370 167.8c0.7 0.1 33.7 16.4 56.9 27.9-0.1-20.8-6.6-59.3-24.4-67.5z m0 167.8L552.3 337.5c-34.7-14.8-48.5-14.8-80.5 0L109.5 497.8c-28.5 14.9-27.5 61.6 0 79.1L471.8 765c32 15.7 52.1 16.6 80.5 0l362.3-188.1c27.6-14.9 26.6-67 0-79.1zM512.1 733l-370-195.7 370-153.3 370 153.3-370 195.7z m0-699l370 167.8c0.7 0.2 33.7 16.5 56.9 28 0-20.8-6.6-59.3-24.4-67.5L552.3 2.1000000000000227c-34.7-14.9-48.5-14.9-80.5 0L109.5 162.20000000000005c-19.2 10.1-24.4 47.2-24.4 67.5 24.2-13.6 58.2-28.7 56.9-28L512.1 34z"  horiz-adv-x="1024" />

    
    <glyph glyph-name="hangdongrizhi" unicode="&#59496;" d="M778.992 746.353c12.258 0 23.84-4.83 32.611-13.602s13.604-20.353 13.604-32.612v-632.276c0-12.258-4.83-23.84-13.604-32.612-8.771-8.771-20.353-13.602-32.611-13.602H245.01c-12.258 0-23.84 4.831-32.611 13.602s-13.602 20.353-13.602 32.612V700.139c0 12.258 4.83 23.841 13.602 32.612 8.771 8.771 20.353 13.602 32.611 13.602h533.982m0 31.836H245.01c-42.926 0-78.051-35.122-78.051-78.051v-632.276c0-42.926 35.122-78.051 78.051-78.051h533.982c42.926 0 78.051 35.122 78.051 78.051V700.138c0 42.927-35.123 78.051-78.051 78.051zM296.858 590.085c0-18.705 15.163-33.868 33.868-33.868 18.705 0 33.868 15.163 33.868 33.868 0 18.705-15.163 33.868-33.868 33.868-18.705 0-33.868-15.163-33.868-33.868zM296.858 384c0-18.705 15.163-33.868 33.868-33.868 18.705 0 33.868 15.163 33.868 33.868 0 18.705-15.163 33.868-33.868 33.868-18.705 0-33.868-15.163-33.868-33.868zM296.858 177.915c0-18.705 15.163-33.868 33.868-33.868 18.705 0 33.868 15.163 33.868 33.868 0 18.705-15.163 33.868-33.868 33.868-18.705 0-33.868-15.163-33.868-33.868zM727.142 575.409H422.439c-8.792 0-15.917 7.127-15.917 15.917 0 8.792 7.127 15.917 15.917 15.917h304.703c8.792 0 15.917-7.127 15.917-15.917 0-8.792-7.126-15.917-15.917-15.917zM727.142 370.562H422.439c-8.792 0-15.917 7.127-15.917 15.917 0 8.792 7.127 15.917 15.917 15.917h304.703c8.792 0 15.917-7.127 15.917-15.917 0-8.791-7.126-15.917-15.917-15.917zM727.142 160.514H422.439c-8.792 0-15.917 7.127-15.917 15.917 0 8.792 7.127 15.917 15.917 15.917h304.703c8.792 0 15.917-7.127 15.917-15.917 0-8.791-7.126-15.917-15.917-15.917z"  horiz-adv-x="1024" />

    
    <glyph glyph-name="zuhe" unicode="&#59576;" d="M512 884.520421c-267.910737 0-485.052632-217.141895-485.052632-485.052632s217.141895-485.052632 485.052632-485.052631 485.052632 217.141895 485.052632 485.052631-217.141895 485.052632-485.052632 485.052632zM360.286316 175.696842L242.526316 233.256421V367.023158l117.76-56.158316v-135.168zM257.509053 382.760421l114.688 54.649263 113.178947-54.649263-113.178947-54.649263-114.688 54.649263z m241.178947-151.013053l-116.250947-56.21221v133.928421l116.250947 56.643368v-134.359579zM499.712 405.557895L381.898105 463.117474V596.830316l117.813895-56.158316V405.557895z m11.964632 152.414316L396.988632 612.621474l114.634105 54.649263 113.232842-54.649263-113.178947-54.649263z m10.24-18.647579l116.197052 56.697263V461.608421L521.916632 405.396211V539.324632z m119.538526-363.62779l-117.813895 57.559579V367.023158l117.813895-56.158316v-135.168zM538.731789 382.760421l114.634106 54.649263 113.178947-54.649263-113.178947-54.649263-114.634106 54.649263z m241.178948-151.013053l-116.197053-56.21221v133.928421l116.197053 56.643368v-134.359579z"  horiz-adv-x="1024" />

    
    <glyph glyph-name="jigou" unicode="&#58885;" d="M121.6-32H64V441.6h57.6v-473.6M64 384v57.6h236.8V384H64m0 0v57.6h57.6H64V384zM691.2 384v57.6H960V384h-268.8m204.8 57.6h57.6v-473.6H896V441.6m57.6-57.6v57.6-57.6z m0 57.6H896h57.6zM601.6 531.2H422.4v64h179.2v-64zM601.6 326.4H422.4V384h179.2v-57.6zM601.6 147.2H422.4v57.6h179.2v-57.6zM332.8-32h-64v832h57.6v-832M268.8 742.4v57.6h473.6v-57.6H268.8m422.4 57.6h57.6v-832h-57.6v832m-422.4-57.6v57.6h57.6-57.6v-57.6z m480 0v57.6-57.6z m0 57.6h-57.6 57.6z"  horiz-adv-x="1024" />

    
    <glyph glyph-name="xuexiao" unicode="&#59194;" d="M511.948502 497.823208c-65.527509 0-118.939478-52.785993-118.939478-117.85852s53.297974-117.858519 118.939478-117.858519c65.527509 0 118.939478 52.785993 118.939478 117.858519s-53.411969 117.858519-118.939478 117.85852z m0-190.154771c-40.158473 0-72.979226 32.478765-72.979225 72.296251 0 39.98748 32.650759 72.353249 72.979225 72.35325s73.036223-32.36577 73.036224-72.35325c0-39.931482-32.820752-72.297251-73.036224-72.297251zM171.968427 143.394682h53.581963v-78.327022H171.968427v78.327022z m0-121.385385h53.581963v-78.327022H171.968427v78.327022z m411.709348 79.17899H439.254266c-14.846436 0-26.791981-11.83155-26.791982-26.56399 0-0.284989 0.113996-0.568978 0.113996-0.682974 0-0.283989-0.113996-0.568978-0.113996-0.739972v-173.203415c0-14.73244 11.945546-26.56399 26.791982-26.563991 14.789438 0 26.790981 11.83155 26.790981 26.563991V48.060307h91.863508v-148.062371c0-14.73244 11.945546-26.56399 26.790981-26.563991 14.789438 0 26.734984 11.83155 26.734984 26.563991V73.088355c0 5.574788-1.706935 10.693593-4.721821 14.959431-4.719821 7.849702-13.252496 13.1395-23.036124 13.139501z m214.556843 42.205395h53.581963v-78.326022H798.234618v78.327022z m0-121.385385h53.581963v-78.325022H798.234618v78.325022zM996.978063 381.272639H739.019869V505.274924l-53.525965 27.529954v-633.830903c0-14.675442 11.945546-26.506992 26.791982-26.506993 14.789438 0 26.733984 11.83155 26.733983 26.506993V221.718705h258.072189c14.845436 0 26.790981 11.83155 26.790982 26.56399v106.595947c-0.113996 14.561446-12.059542 26.392997-26.904977 26.392997z m-26.790982-106.595948H739.758841v53.525965H970.188081v-53.525965zM57.351785-100.002064c0-14.73244 11.944546-26.56399 26.790981-26.563991 14.789438 0 26.790981 11.83155 26.790982 26.563991V224.051616H57.350785v-324.05368z m855.497476 0c0-14.73244 11.945546-26.56399 26.791981-26.563991s26.790981 11.83155 26.790982 26.563991V224.051616H912.850261v-324.05368zM284.878135 381.272639H26.805946c-14.846436 0-26.791981-11.83155-26.791981-26.56399v-106.595948c0-14.675442 11.945546-26.506992 26.791981-26.506992h258.071189v-322.631734c0-14.675442 11.945546-26.506992 26.790981-26.506993 14.846436 0 26.791981 10.409604 26.791982 25.085047V533.942835l-53.582963-27.587952V381.272639z m-0.852968-106.595948H53.596928v53.525965H284.024167v-53.525965z m-59.213749 201.588336c4.152842 0 8.361682 1.023961 12.229535 3.014886l274.794553 140.838645L786.745055 479.278913c3.867853-1.990924 8.019695-3.014885 12.229535-3.014886 9.612635 0 18.998278 5.289799 23.719098 14.277458 6.769743 12.969507 1.762933 28.952899-11.489563 35.835637L540.16043 665.338839a31.535801 31.535801 0 0 1-2.38891 3.69786c0.227991 1.705935 0.569978 3.41287 0.569979 5.289798V715.849919l152.783191 61.204673a25.199042 25.199042 0 0 1 4.606825 2.389909h0.113996c2.047922 1.30795 3.754857 2.89989 5.176803 4.606825 0.454983 0.397985 0.739972 0.852968 1.023961 1.30795a27.331961 27.331961 0 0 1 3.753857 6.086769v0.169993c0.113996 0.569978 0.283989 0.966963 0.397985 1.535942 0.340987 1.137957 0.739972 2.161918 1.023961 3.299875 0.169994 0.852968 0.169994 1.591939 0.28399 2.274913 0.170993 1.023961 0.284989 1.876929 0.284989 2.843892 0 0.909965-0.113996 1.762933-0.284989 2.559903-0.112996 0.909965-0.112996 1.762933-0.28399 2.6159-0.113996 0.966963-0.568978 2.10492-0.852967 3.129881-0.169994 0.567978-0.284989 1.136957-0.569979 1.705935 0 0 0 0.112996-0.169993 0.112996-0.568978 1.30895-1.136957 2.445907-1.876929 3.583864-0.113996 0.283989-0.226991 0.739972-0.568978 1.023961-1.705935 2.388909-3.867853 4.549827-6.31376 6.427756-0.454983 0.283989-0.739972 0.568978-1.023961 0.852967-0.397985 0.283989-0.966963 0.568978-1.59294 0.852968a51.768032 51.768032 0 0 1-3.127881 1.706935c-0.169994 0-0.169994 0-0.169993 0.113995L523.32507 894.060144C512.688474 898.325982 501.025917 895.311096 493.689196 887.461395c-5.346797-4.834816-8.816665-11.659557-8.816664-19.509259v-193.796632c0-1.989924 0.284989-3.980849 0.739971-5.801779-0.739972-1.023961-1.421946-2.046922-1.990924-3.184879L212.580883 526.377122c-13.082503-6.712745-18.316304-22.696137-11.546561-35.835637 4.777818-8.987658 14.163462-14.277457 23.776096-14.277458zM538.455494 830.694553l71.55728-28.838904-71.55728-28.66891V830.695553zM939.639242-127.988H85.735706c-9.555637 0-17.291343 7.735706-17.291343 17.121349v1.706935c0 9.441641 7.735706 17.177347 17.291343 17.177347h853.906536c9.499639 0 17.292343-7.735706 17.292343-17.177347v-1.706935c0-9.385643-7.792704-17.121349-17.292343-17.121349z"  horiz-adv-x="1024" />

    
    <glyph glyph-name="yichu" unicode="&#58889;" d="M764.06272 638.75584a358.3744 358.3744 0 1 1 0-506.80832 358.36928 358.36928 0 0 1 0 506.80832z m-46.08-278.49728a17.27488 17.27488 0 0 0-17.21344-17.21856h-50.37056v0.512H366.11072v-0.512h-44.8a17.24928 17.24928 0 0 0-17.28512 17.28512v51.712a17.29024 17.29024 0 0 0 17.26464 17.26464h13.23008v-0.46592h324.29568v0.46592h41.94816a17.33632 17.33632 0 0 0 17.26464-17.26464z"  horiz-adv-x="1024" />

    
    <glyph glyph-name="icon-test" unicode="&#58902;" d="M512 832C265 832 64 631 64 384s200.9-448 448-448 448 201 448 448S759 832 512 832z m235.2-343.7L464.9 206.10000000000002c-6.8-6.8-17.8-6.8-24.5 0l-37.1 37-122.5 122.6c-6.8 6.8-6.8 17.7 0 24.6l37 37c6.8 6.8 17.7 6.8 24.6 0L452.6 317l232.9 232.9c6.8 6.8 17.8 6.8 24.7 0l37-37c6.7-6.7 6.7-17.7 0-24.6z"  horiz-adv-x="1024" />

    
    <glyph glyph-name="jiaoshiweihu" unicode="&#58945;" d="M945.599852 130.699912c2.899999 20.299993 2.899999 39.899986 0 60.299979l71.999975 44.899985-26.899991 64.699978-82.199972-19.599994c-11.599996 16.699994-26.099991 30.49999-42.799985 42.899986l18.899994 81.999972-65.599978 26.99999-44.299985-70.499976c-20.299993 2.899999-40.699986 2.899999-60.299979 0L669.999946 433.599808l-65.299978-26.099991 18.199994-82.099972c-16.699994-11.599996-31.299989-25.999991-43.599985-42.099986l-16.999994 3.899999v257.999912h10.199996c22.299992 0 40.399986 20.799993 40.399987 46.299984 0 12.099996-3.999999 23.499992-11.399997 32.199989-0.4 0.4-0.7 0.8-1.099999 1.2l-56.099981 53.499981v0.3L320.300066 891.899651c-5.499998 5.399998-14.299995 5.499998-19.899994 0.1L13.60017 624.999743c-0.5-0.4-0.9-0.9-1.299999-1.4C5.000173 614.999746 1.000175 603.59975 1.000175 591.499754c0-25.499991 18.099994-46.299984 40.399986-46.299984h13.799995v-264.79991c0-8.999997 6.799998-16.399994 15.099995-16.399994h411.399859l-11.399996-26.599991 70.499976-45.099984c-2.799999-20.299993-2.799999-40.699986 0-60.29998l-71.199976-44.299985 26.899991-64.599978 82.199972 18.099994c11.599996-15.999995 26.099991-30.49999 42.799986-42.799985L601.899969-83.000015l65.299978-26.799991 45.899984 70.499976c20.299993-2.999999 40.699986-2.999999 60.29998 0l44.999984-71.299976 65.399978 26.899991-18.799994 82.299972c15.999995 11.599996 29.79999 25.299991 42.199986 42.099985l82.799972-18.899993 27.69999 64.599978-72.099975 44.299985zM162.700119 579.199758c0 22.999992 18.699994 41.599986 41.699986 41.699986h198.899932c22.999992 0 41.699986-18.699994 41.699986-41.699986v-113.299961c0-22.999992-18.699994-41.599986-41.699986-41.699986H302.800072c1.699999 2.699999 2.899999 5.699998 3.499998 8.899997l8.899997 8.899997h88.19997c13.199995 0 23.899992 10.699996 23.899992 23.899992V579.099758c0 13.199995-10.699996 23.899992-23.899992 23.899992h-198.999932c-13.199995 0-23.899992-10.699996-23.899992-23.899992v-113.199961c0-11.999996 8.999997-22.099992 20.899993-23.599992v-5.699998c0-4.399998 1.2-8.599997 3.499999-12.399996h-0.5c-22.999992 0-41.599986 18.699994-41.699986 41.699986V579.199758z m119.999959-165.199943h-57.49998v7.599997c-8.299997 0-14.999995 6.699998-14.999995 14.999995v61.599979c0 10.799996 7.899997 20.099993 18.899994 22.399992l7.999997 1.7 16.799994-33.399989 16.799994 33.399989 7.999998-1.7c10.999996-2.299999 18.899994-11.599996 18.899993-22.399992v-49.599983l52.599982 52.599982c0.8 0.8 1.799999 1.2 2.799999 1.2 1.1 0 2.099999-0.4 2.799999-1.2 0.8-0.8 1.2-1.799999 1.2-2.799999 0-1.1-0.4-2.099999-1.2-2.799999l-58.29998-58.29998v-0.5c0-8.299997-6.699998-14.999995-14.999995-14.999995l0.2-7.799997z m-47.899983 139.299952c0.8 11.299996 7.099998 18.699994 19.399993 18.699994 12.599996 0 18.199994-8.599997 18.899994-18.699994 3.199999 0 3.399999-4.199999 2.999999-7.399997-0.4-2.999999-2.799999-6.699998-5.099999-7.899998-7.099998-21.599993-26.899991-21.599993-34.099988 0-2.299999 1.2-4.699998 4.899998-5.099998 7.899998-0.5 3.199999-0.2 7.399997 2.999999 7.399997z m13.499995-217.099926h-85.599971v35.999988c0 7.199998 2.899999 14.199995 7.999998 19.299993 5.099998 5.099998 12.099996 7.999997 19.299993 7.999998h31.099989c7.199998 0 14.199995-2.899999 19.299994-7.999998 5.099998-5.099998 7.999997-11.999996 7.999997-19.299993v-35.999988z m98.899966 0h-85.59997v35.999988c0 7.199998 2.899999 14.199995 7.999997 19.299993 5.099998 5.099998 12.099996 7.999997 19.299993 7.999998H320.000066c7.199998 0 14.199995-2.899999 19.299993-7.999998 5.099998-5.099998 7.999997-11.999996 7.999997-19.299993v-35.999988z m98.699967 0h-85.599971v35.999988c0 7.199998 2.899999 14.199995 7.999997 19.299993 5.099998 5.099998 12.099996 7.999997 19.299994 7.999998h31.099989c7.199998 0 14.199995-2.899999 19.299993-7.999998 5.099998-5.099998 7.999997-12.099996 7.999998-19.299993v-35.999988z m388.499867-212.699927c-21.199993-49.499983-78.499973-72.599975-128.599956-52.399982-50.199983 21.099993-73.399975 78.499973-52.299982 127.899956 20.299993 50.099983 78.499973 73.299975 127.899956 52.299982 50.099983-21.099993 74.099975-77.699973 52.999982-127.799956z"  horiz-adv-x="1024" />

    
    <glyph glyph-name="jiachang" unicode="&#58883;" d="M365.283 474.654c0.458 0.121 0.855 0.32 1.202 0.583 6.884 2.563 13.909 5.547 20.804 8.629 175.244 78.111 201.888 208.053 201.888 208.053s59.985-70.359 92.756-145.253c0.96-2.32 2.058-4.607 3.018-6.925 0.096-0.266 0.165-0.531 0.298-0.762-5.735-94.418-22.702-169.314-63.757-216.505-9.249-10.608-14.121-21.91-16.141-33.276 274.898-94.215 247.362 99.986 247.362 99.986s-32.38-66.279-65.523 0c-17.694 35.394 0 119.702-34.698 252.261C715.077 784.378 608.003 840.287 521.277 840.287c-86.729 0-195.362-55.511-231.218-198.842-33.142-132.562-15.444-216.87-33.142-252.261-33.142-66.279-67.043 0-67.043 0S162.236 194.385 438.69 289.73c-2.122 11.197-6.959 22.304-16.041 32.773-31.218 35.794-48.318 87.922-57.365 152.148z m510.53-336.872c-39.468 33.838-132.533 39.371-187.846 39.902 0 0-66.512-199.073-165.933-199.073-99.417 0-165.93 199.073-165.93 199.073-55.312-0.562-148.377-6.064-187.846-39.902-53.788-46.227-79.115-192.31-79.115-192.31h865.789c-0.005 0-25.333 146.084-79.12 192.31z"  horiz-adv-x="1024" />

    
    <glyph glyph-name="excel" unicode="&#58891;" d="M728.345 831.777h-504.289v-257.117h68.687v188.321h378.844v-187.78h186.917v-569.777h-565.761v84.271h-0.715v68.796h0.715v53.046h-68.687v-274.909h703.135v702.886zM660.276 477.597h129.217v-67.077h-129.217zM660.276 317.614h129.217v-67.077h-129.217zM660.276 157.631h129.217v-67.077h-129.217zM586.15 487.216h-68.687v-328.725h-225.435v-68.796h294.122zM460.55 211.537v363.123h-362.546v-363.123h362.546zM226.507 281.842l-85.787-0.722 93.843 110.912-93.843 113.045 81.805-0.225 53.747-63.523 53.747 63.523 81.805 0.225-93.843-113.044 93.843-110.912-85.787 0.722-49.765 59.948-49.765-59.949zM326.038 281.842l85.787-0.722-93.843 110.913 93.843 113.044-81.805-0.225-53.747-63.524-53.748 63.524-81.805 0.225 93.844-113.044-93.844-110.913 85.787 0.722 49.766 59.948z"  horiz-adv-x="1024" />

    
    <glyph glyph-name="zudui" unicode="&#58906;" d="M699.456 461.696a105.152 105.152 0 1 1 0 210.304 105.152 105.152 0 0 1 0-210.304z m0-64a169.152 169.152 0 1 0 0 338.304 169.152 169.152 0 0 0 0-338.304zM568.448 354.304a218.24 218.24 0 0 0 131.008 43.392 219.456 219.456 0 0 0 219.392-219.392V128a32 32 0 0 0-32-32H640v-64h246.848a96 96 0 0 1 96 96v50.304a283.456 283.456 0 0 1-452.672 227.328l38.272-51.328zM365.44 471.104a132.48 132.48 0 1 1 0 264.896 132.48 132.48 0 0 1 0-264.896z m0-64a196.48 196.48 0 1 0 0 392.896 196.48 196.48 0 0 0 0-392.896z m0 0a269.44 269.44 0 0 1-269.44-269.44v-73.024a32 32 0 0 1 32-32h474.88a32 32 0 0 1 32 32v73.024a269.44 269.44 0 0 1-269.44 269.44z m0 64a333.44 333.44 0 0 0 333.44-333.44v-73.024a96 96 0 0 0-96-96H128a96 96 0 0 0-96 96v73.024a333.44 333.44 0 0 0 333.44 333.44z"  horiz-adv-x="1024" />

    
    <glyph glyph-name="zuzhi" unicode="&#58980;" d="M484.566581 523.096686v-127.096738h57.961719V523.096686c89.715132 13.974151 158.591258 91.757369 158.591258 185.330594 0 103.429186-84.144738 187.57272-187.571515 187.57272-103.427982 0-187.57272-84.143534-187.57272-187.57272 0-93.572021 68.876127-171.356443 158.591258-185.330594zM513.548043 838.038281c71.467456 0 129.609797-58.143545 129.609796-129.611001S585.015498 578.818687 513.548043 578.818687s-129.609797 58.141137-129.609797 129.608593c0 71.467456 58.142341 129.611001 129.609797 129.611001zM513.548043 190.169919c-87.719857 0-159.08496-71.365103-159.08496-159.084959s71.365103-159.08496 159.08496-159.08496 159.08496 71.365103 159.084959 159.08496S601.267899 190.169919 513.548043 190.169919z m0-260.2082c-55.75933 0-101.122037 45.362706-101.122037 101.123241 0 55.75933 45.362706 101.123241 101.122037 101.12324s101.122037-45.362706 101.122036-101.12324c0-55.75933-45.362706-101.123241-101.122036-101.123241zM895.445147 187.515974V377.238101h-0.036125v18.481281H131.616018v-57.961719h0.03492v-150.241689c-73.928736-13.664684-130.103498-78.60806-130.103498-156.431014 0-87.719857 71.365103-159.08496 159.08496-159.08496S319.71736-56.634897 319.71736 31.08496c0 77.824159-56.174762 142.767535-130.103499 156.431014v150.241689h647.869567v-150.241689c-73.928736-13.664684-130.103498-78.60806-130.103498-156.431014 0-87.719857 71.365103-159.08496 159.084959-159.08496s159.08496 71.365103 159.08496 159.08496c-0.001204 77.822955-56.175966 142.76633-130.104702 156.431014zM261.754436 31.08496c0-55.75933-45.362706-101.123241-101.122036-101.123241s-101.122037 45.362706-101.122037 101.123241c0 55.75933 45.362706 101.123241 101.122037 101.12324 55.75933-0.001204 101.122037-45.363911 101.122036-101.12324z m604.709249-101.123241c-55.75933 0-101.122037 45.362706-101.122036 101.123241 0 55.75933 45.362706 101.123241 101.122036 101.12324s101.122037-45.362706 101.122037-101.12324c0.001204-55.75933-45.362706-101.123241-101.122037-101.123241z"  horiz-adv-x="1034" />

    
    <glyph glyph-name="fenban" unicode="&#58892;" d="M100.7 45.10000000000002V721.9c0 30.4 24.7 55.1 55.2 55.1h633.8V813.7H155.9c-50.7 0-91.9-41.2-91.9-91.8v-676.8c0-50.6 41.2-91.8 91.9-91.8h633.8V-10H155.9c-30.5 0-55.2 24.7-55.2 55.1z m413.7 65.7l445.7 592.6-29.4 22L485 132.89999999999998l29.4-22.1z m63.4 492H197.5v-36.7h380.3v36.7z m-78.1-132.2H197.5v-36.7h302.2v36.7zM197.5 301.79999999999995h225.1v36.7H197.5v-36.7z"  horiz-adv-x="1024" />

    
    <glyph glyph-name="rili" unicode="&#58896;" d="M991.901 680.448c0 27.241-22.434 49.675-49.675 49.675H801.213v-46.47h-32.049v46.47H257.991v-48.073h-32.049v48.073H81.724c-27.242 0-49.675-22.434-49.675-49.675v-155.436H991.9V680.448zM32.049 10.634c0-27.241 22.433-49.675 49.675-49.675h862.105c27.24 0 49.675 22.434 49.675 49.675v482.33H32.049v-482.33zM943.829 762.171H801.213v78.52h-32.049v-78.52H257.991v78.52h-32.049v-78.52H81.724C36.856 762.171 0 725.316 0 678.845v-669.814c0-44.867 36.856-81.723 81.724-81.723h860.502c44.868 0 81.724 36.856 81.724 81.723V678.845c1.602 46.47-35.253 83.326-80.121 83.326z m49.675-751.537c0-27.241-22.434-49.675-49.675-49.675H81.724c-27.242 0-49.675 22.434-49.675 49.675v482.33h961.455v-482.33zM32.049 680.448c0 27.241 22.433 49.675 49.675 49.675h144.218v-48.073h32.049v48.073h511.173v-46.47h32.049v46.47h141.013c27.241 0 49.675-22.434 49.675-49.675v-155.436H32.05V680.448zM644.175 246.19H543.222l-30.446 97.748-30.446-97.748H381.377l81.724-60.892-30.446-97.748 80.121 60.892 80.121-60.892-30.446 97.748zM738.718 279.841h-171.46l-54.482 173.062-54.482-173.062h-171.46l139.411-105.76-54.482-173.062 141.013 105.76L653.79 1.02l-54.483 173.062 139.411 105.76zM512.776 148.442l-80.121-60.892 30.446 97.748-81.724 60.892H482.33l30.446 97.748 30.446-97.748h100.953l-81.724-60.892 30.446-97.748-80.12 60.892zM418.233 611.543l24.036-8.012c-3.204-14.422-9.614-24.036-19.229-30.446s-19.229-9.614-33.65-9.614c-16.025 0-30.447 6.41-41.664 17.626s-16.024 27.242-16.024 46.47c0 20.832 4.807 36.856 16.024 49.676 11.217 11.217 25.64 17.627 43.266 17.627 16.024 0 27.241-4.808 36.856-14.422 6.41-4.808 9.614-12.82 12.819-22.434l-24.036-8.012c-1.603 6.41-4.808 11.217-9.615 16.024-4.807 3.205-11.217 6.41-17.627 6.41-9.614 0-17.626-3.205-22.434-9.615-6.41-6.41-8.012-17.627-8.012-32.048 0-16.025 3.205-27.242 8.012-33.651 6.41-6.41 12.82-9.615 22.434-9.615 6.41 0 12.82 1.602 17.627 6.41 4.807 1.602 8.012 8.012 11.217 17.626z m158.64-46.47h-27.241l-11.217 28.844H488.74l-9.615-28.844h-27.241l49.675 126.592H528.8l48.073-126.592z m-46.47 49.675l-17.627 48.073-16.024-48.073h33.65z m60.892-49.675v124.99h25.639v-104.158h62.494v-20.832h-88.133z"  horiz-adv-x="1024" />

    
    <glyph glyph-name="xuesheng1" unicode="&#58886;" d="M375.4308340625 183.96506343750002c0-10.132650000000002 4.1702924999999995-20.2010240625 11.333755312500001-27.3635278125 7.163462812500001-7.163462812500001 17.2327959375-11.3347153125 27.3606496875-11.3347153125 10.132650000000002 0 20.196226875 4.171251562499999 27.3635278125 11.3347153125 7.163462812500001 7.163462812500001 11.329918124999999 17.231836875 11.329918124999999 27.3635278125 0 10.12785375-4.1664553125 20.197185937500002-11.329918124999999 27.3606496875-7.16826 7.163462812500001-17.231836875 11.333755312500001-27.3635278125 11.333755312500001-10.12785375 0-20.197185937500002-4.1702924999999995-27.3606496875-11.333755312500001C379.602085625 204.16225031249996 375.4308340625 194.0929171875 375.4308340625 183.96506343750002L375.4308340625 183.96506343750002zM375.4308340625 183.96506343750002M564.6068928125 183.96506343750002c0-10.132650000000002 4.1702924999999995-20.2010240625 11.333755312500001-27.3635278125 7.163462812500001-7.163462812500001 17.2327959375-11.3347153125 27.3606496875-11.3347153125 10.132650000000002 0 20.2010240625 4.171251562499999 27.3635278125 11.3347153125 7.163462812500001 7.163462812500001 11.3347153125 17.231836875 11.3347153125 27.3635278125 0 10.12785375-4.171251562499999 20.197185937500002-11.3347153125 27.3606496875-7.163462812500001 7.163462812500001-17.231836875 11.333755312500001-27.3635278125 11.333755312500001-10.12785375 0-20.197185937500002-4.1702924999999995-27.3606496875-11.333755312500001C568.7771853125 204.16225031249996 564.6068928125 194.0929171875 564.6068928125 183.96506343750002L564.6068928125 183.96506343750002zM564.6068928125 183.96506343750002M896.8354015625 626.61566625L508.7996103125 802.2236446875 120.76861531249995 626.61566625l388.03099499999996-175.611815625L851.8188828125001 606.9490003125c-1.645284375-75.346355625-11.5582434375-159.0380925-17.3555925-166.69945781250001l24.399137812499998 0 24.399137812499998 0c-5.960438437500001 7.661365312499999-16.2897553125 95.9080940625-17.47839 173.0215715625L896.8354015625 626.61566625 896.8354015625 626.61566625zM896.8354015625 626.61566625M508.7996103125 413.5115109375L269.431341875 525.7055240625c-56.7378515625-59.452811249999996-91.69079343749999-139.8654909375-91.69079343749999-228.33478875 0-182.546953125 148.51210874999998-331.0638590625 331.059061875-331.0638590625s331.0638590625 148.5169059375 331.0638590625 331.0638590625c0 89.8047121875-36.062909062500005 171.2621240625-94.32228937500001 230.9614884375L508.7996103125 413.5115109375 508.7996103125 413.5115109375zM788.2188040624999 299.2481821875c0.009593437500000001-0.6312515625 0.04988625-1.2481134375 0.04988625-1.878406875 0-154.1003203125-125.36875968749999-279.46907999999996-279.46907999999996-279.46907999999996-150.8701903125 0-274.1245434375 120.19402875-279.22252687499997 269.8439259375 1.0552846875-1.567576875 2.110569375-3.1293984375 3.266585625-4.6413328125 49.6943071875-65.11297312500001 171.217035-55.898420625 271.4287715625 20.584763437499998 14.138894062499999 10.79076375 27.048860625 22.362437812499998 38.739495 34.427218125-1.662553125-54.07565625-11.02388625-88.517265-44.842876875-115.456760625 45.843478125 20.356438125 72.95181843750001 61.371509999999994 88.9777528125 102.121801875 66.8484365625-60.8784046875 152.012775-76.45632281249999 193.8903028125-34.020453749999994C783.6638121875 293.42301093750007 786.0525921875001 296.264604375 788.2188040624999 299.2481821875L788.2188040624999 299.2481821875zM788.2188040624999 299.2481821875"  horiz-adv-x="1024" />

    
    <glyph glyph-name="qiyong" unicode="&#58900;" d="M753.149005 394.474087c15.831646 0 29.252712-5.212064 40.3935-15.766495 11.075637-10.48928 16.613455-23.193687 16.613455-38.178372v-323.734354c0-14.984685-5.537818-27.689092-16.613455-38.178372a56.746352 56.746352 0 0 0-40.3935-15.766495H183.209756a56.681201 56.681201 0 0 0-40.3935 15.766495 50.622176 50.622176 0 0 0-16.613455 38.178372V340.52922c0 14.984685 5.537818 27.689092 16.613455 38.178372a56.355447 56.355447 0 0 0 40.3935 15.766495h19.024035v179.816224c0 69.320457 25.995172 128.607691 78.050666 177.926851C332.33995 801.471171 394.949875 826.098176 468.17938 826.098176c73.229506 0 135.83943-24.627005 187.894924-73.881014 52.055494-49.31916 78.050665-108.606393 78.050666-177.926851a33.617816 33.617816 0 0 0-11.27109-25.278512 37.592015 37.592015 0 0 0-26.71183-10.684732h-37.98292a37.592015 37.592015 0 0 0-26.71183 10.684732 33.878419 33.878419 0 0 0-11.27109 25.278512c0 39.741992-14.854384 73.620411-44.563151 101.765559a150.628663 150.628663 0 0 1-107.433679 42.152571c-41.957119 0-77.790062-14.072574-107.433678-42.152571-29.708767-28.079997-44.563151-62.023567-44.563151-101.765559v-179.816224h436.966454z"  horiz-adv-x="1024" />

    
    <glyph glyph-name="xuesheng" unicode="&#58898;" d="M441.856-38.912h151.04V130.56h-151.04z m-144.384 432.64c0-46.592-33.28-84.48-73.728-84.48-40.96 0-73.728 37.888-73.728 84.48s33.28 84.48 73.728 84.48c40.448-0.512 73.728-37.888 73.728-84.48z m587.776 0c0-46.592-33.28-84.48-73.728-84.48s-74.24 37.888-74.24 84.48 33.28 84.48 73.728 84.48 74.24-37.888 74.24-84.48zM811.008 554.496c0 123.904-90.624 215.04-293.376 215.04-202.752 0-293.376-90.624-293.376-215.04 0-123.904-20.992-451.072 293.376-451.072s293.376 327.168 293.376 451.072zM269.824 541.696c-2.048 50.176 29.184 86.016 90.624 113.664 0 0 176.128-50.176 299.52-50.176 161.792 0 118.784-189.952 147.968-191.488 29.184-1.536 60.928 216.576 27.136 341.504 0 0-95.744 118.272-285.696 138.24-189.952 20.48-346.624-85.504-354.304-247.296-6.656-142.848 4.608-232.448 28.672-232.448 25.6 0 48.64 77.824 46.08 128zM512 73.728V-128h389.12c0 81.408-204.8 201.728-389.12 201.728z m0 0V-128H122.88c0 81.408 204.8 201.728 389.12 201.728z"  horiz-adv-x="1024" />

    
    <glyph glyph-name="nianji" unicode="&#59013;" d="M828.792266 896H194.107761c-51.498743 0-66.398379-17.299578-66.398379-67.99834v-660.28388c0-6.499841 1.999951-12.799688 5.299871-18.499548 1.399966-9.199775 6.299846-17.699568 14.499646-23.599424L491.000513-121.175167c12.599692-9.099778 29.699275-9.099778 42.298967 0l343.491614 246.793975c7.899807 5.599863 12.599692 13.799663 14.199653 22.499451 2.599937 4.89988 4.0999 10.299749 4.0999 16.099607l1.299968 665.18376c0 48.198823-18.599546 66.598374-67.598349 66.598374zM352.903884 430.311369s-62.698469 69.998291-100.397549 112.397256c-13.199678 15.499622-4.599888 37.399087 21.599473 41.498987 53.598691 9.499768 136.496668 27.799321 136.496668 27.799321s42.19897 75.298162 70.898269 123.396988c17.899563 33.399185 22.299456 36.899099 31.799223 36.899099 9.399771 0 11.699714-1.299968 32.299212-36.899099 28.499304-48.098826 70.098289-123.496985 70.098288-123.496985s81.898001-15.099631 134.896707-24.5994c25.899368-4.0999 34.39916-32.499207 21.29948-47.89883-37.199092-42.498962-95.997656-109.497327-95.997656-109.497327s9.499768-77.098118 15.599619-129.796831c1.799956-20.299504-18.299553-34.999146-33.99917-34.999146-5.099875 0-10.699739 1.199971-16.499597 3.799908-44.398916 20.89949-111.997266 53.498694-127.196895 60.698518-15.399624-7.299822-83.697957-39.099045-128.696858-60.098533-5.799858-2.599937-11.399722-3.799907-16.599595-3.799907-15.999609 0-37.599082 14.799639-35.699128 34.999145 5.999854 52.498718 20.099509 129.596836 20.099509 129.596836z m0 0"  horiz-adv-x="1024" />

    
    <glyph glyph-name="icon-expert" unicode="&#58882;" d="M866.508571 203.16951500000005M639.627261 192.13111100000003c0 58.755172-39.897685 108.360963-94.02342 123.166157L545.603841 831.978894 481.64311 831.978894l0-515.813862c-55.819307-13.640672-97.371678-64.071248-97.371678-124.033921 0-59.963697 41.552371-110.395296 97.371678-124.035968l0-131.564431 63.960731 0L545.603841 68.96290699999997C599.728552 83.768101 639.627261 133.37389299999995 639.627261 192.13111100000003zM511.948323 128.411881c-35.133172 0-63.718207 28.584012-63.718207 63.718207 0 35.135218 28.585035 63.718207 63.718207 63.718207 35.134195 0 63.718207-28.585035 63.718207-63.718207C575.66653 156.99589300000002 547.082518 128.411881 511.948323 128.411881zM959.429891 576.3795190000001c0 58.755172-39.897685 108.361987-94.02342 123.167181L865.40647 831.978894l-63.960731 0 0-131.564431c-55.819307-13.640672-97.371678-64.071248-97.371678-124.034944s41.552371-110.394273 97.371678-124.034944l0-515.813862 63.960731 0L865.40647 453.211315C919.532205 468.016509 959.429891 517.6223 959.429891 576.3795190000001zM831.751976 512.661312c-35.133172 0-63.718207 28.584012-63.718207 63.718207 0 35.134195 28.585035 63.718207 63.718207 63.718207 35.134195 0 63.718207-28.584012 63.718207-63.718207C895.46916 541.2443000000001 866.886171 512.661312 831.751976 512.661312zM319.582107 576.3795190000001c0 58.755172-39.897685 108.361987-94.02342 123.167181L225.558687 831.978894l-63.960731 0 0-131.564431c-55.819307-13.640672-97.371678-64.071248-97.371678-124.034944s41.552371-110.394273 97.371678-124.034944l0-515.813862 63.960731 0L225.558687 453.211315C279.683399 468.016509 319.582107 517.6223 319.582107 576.3795190000001zM191.90317 512.661312c-35.133172 0-63.718207 28.584012-63.718207 63.718207 0 35.134195 28.585035 63.718207 63.718207 63.718207 35.134195 0 63.718207-28.584012 63.718207-63.718207C255.621377 541.2443000000001 227.037365 512.661312 191.90317 512.661312z"  horiz-adv-x="1024" />

    
    <glyph glyph-name="jiaose" unicode="&#58907;" d="M130.133333 317.866667h74.666667c74.666667 0 74.666667 155.733333 74.666667 196.266666 0 119.466667-217.6 119.466667-217.6 0-4.266667-40.533333-4.266667-196.266667 68.266666-196.266666z m324.266667 57.6h115.2c115.2 0 115.2 232.533333 115.2 290.133333 0 177.066667-339.2 177.066667-339.2 0-2.133333-55.466667-2.133333-290.133333 108.8-290.133333z m369.066667-57.6H896c74.666667 0 74.666667 155.733333 74.666667 196.266666 0 119.466667-217.6 119.466667-217.6 0-4.266667-40.533333-4.266667-196.266667 70.4-196.266666z m155.733333-151.466667c-44.8 44.8-134.4 66.133333-217.6 61.866667 32-12.8 66.133333-32 85.333333-57.6 36.266667-36.266667 53.333333-98.133333 61.866667-142.933334H1024s0 93.866667-44.8 138.666667z m-934.4 0C0 121.6 0 27.733333 0 27.733333h115.2c8.533333 44.8 25.6 106.666667 61.866667 142.933334 21.333333 25.6 49.066667 40.533333 81.066666 53.333333-78.933333 8.533333-168.533333-8.533333-213.333333-57.6z m204.8 4.266667c-66.133333-70.4-66.133333-204.8-66.133333-204.8h659.2s0 134.4-66.133334 204.8c-113.066667 115.2-411.733333 119.466667-526.933333 0z"  horiz-adv-x="1024" />

    
    <glyph glyph-name="shanchu" unicode="&#58880;" d="M778.89903002 740.7661802499999L246.56152106 740.7661802499999c-49.01044709 0-88.72353974-39.71022363-88.72353974-88.71990372l0-29.57371588 709.78334568 0 0 29.57371588C867.62256976 701.05595662 827.91071866 740.7661802499999 778.89903002 740.7661802499999M623.92283591 799.91236927l13.05430031-93.3398264L388.48341485 706.57254165l13.05305877 93.3398264L623.92283591 799.91236927M631.02812038 859.05855709l-236.59444816 0c-24.40462458 0-47.10527188-19.7538951-50.51322519-43.95508744l-17.29933888-123.75183391c-3.37938811-24.17138681 13.83425517-43.92652345 38.23887853-43.92652344l295.7430608 0c24.40338181 0 41.61826785 19.7538951 38.21031333 43.95508743l-17.30058043 123.7518339C678.13090918 839.30466198 655.43150341 859.05855709 631.02812038 859.05855709M793.68587279 563.32761438L231.77343674 563.32761438c-32.51962706 0-56.75161888-26.51239583-53.80567616-58.91519283L226.43174301-28.36526845000003c2.91613476-32.40403854 31.97192086-58.91519283 64.49154792-58.91519283l443.61521197 0c32.51962706 0 61.5741704 26.51239583 64.49154792 58.91519283l48.46273968 532.77769C850.43749168 536.81521855 826.20549985 563.32761438 793.68587279 563.32761438M394.43367222 31.011915550000026l-88.72353973 0-29.57492709 414.02332077 118.29722407 0L394.43243069 31.011915550000026zM571.87950896 31.011915550000026l-118.29722409 0L453.58228487 445.03523632l118.29722409 0L571.87950896 31.011915550000026zM719.75041858 31.011915550000026l-88.72353974 0L631.02687884 445.03523632l118.29722408 0L719.75041858 31.011915550000026z"  horiz-adv-x="1024" />

    
    <glyph glyph-name="xueqixuenianguanli" unicode="&#58899;" d="M253.584 439.28V573.568a96.944 96.944 0 0 0-121.36 93.856 96.944 96.944 0 1 0 193.888 0c0-11.648-2.048-22.832-5.824-33.2h136.416V714.24h-56.576a179.856 179.856 0 0 1-16.496 40.08l40.448 40.624-67.232 67.312-40.208-40.4c-12.576 7.12-26.144 12.8-40.144 16.672V896h-94.752v-57.792c-13.984-3.888-27.28-9.376-39.504-16.32l-40.608 40.464-67.296-67.216 40.4-40.8c-7.008-12.4-12.64-26.112-16.528-40.096H0v-94.752h58.224c3.888-14 9.456-27.152 16.48-39.52L34.24 539.632l67.232-67.184 40.8 40.496c12.208-6.912 25.52-12.416 39.504-16.288v-57.36l71.808-0.016zM972.656-127.744H344.16a52.4 52.4 0 0 0-52.368 52.368V526.96a52.368 52.368 0 0 0 52.368 52.368h104.752v-26.192c0-2.32 0.736-4.304 1.312-6.416-16.72-4.864-27.504-11.888-27.504-19.76 0-14.48 35.136-26.224 78.576-26.224 43.376 0 78.528 11.728 78.528 26.224 0 7.872-10.768 14.912-27.488 19.76 0.512 2.112 1.264 4.096 1.264 6.416v26.192h209.504v-26.192c0-2.32 0.784-4.304 1.376-6.416-16.736-4.864-27.552-11.888-27.552-19.76 0-14.48 35.2-26.224 78.544-26.224 43.408 0 78.576 11.728 78.576 26.224 0 7.872-10.8 14.912-27.52 19.76 0.576 2.112 1.328 4.096 1.328 6.416v26.192H972.64a52.384 52.384 0 0 0 52.336-52.368v-602.336a52.32 52.32 0 0 0-52.32-52.368zM658.384 343.664A104.752 104.752 0 0 1 553.616 448.4c-48.72 0-89.344-33.408-100.976-78.528h55.888c9.12 15.584 25.76 26.176 45.072 26.176a52.368 52.368 0 1 0 0-104.72c-6.528 0-40.352-1.52-68.528-26.176 28.192-24.736 62-26.192 68.528-26.192a52.4 52.4 0 0 0 0-104.768 52.352 52.352 0 0 0-52.304 52.368h-52.384a104.752 104.752 0 0 1 209.488 0c0 31.472-14.16 59.392-36.128 78.592 21.968 19.184 36.112 47.008 36.112 78.512z m183.312 52.352c0 14.48-11.696 26.192-26.176 26.192h-26.208c-14.464 0-26.224-11.696-26.224-26.192v-288.08c0-14.448 11.744-26.16 26.224-26.16h26.208c14.464 0 26.176 11.696 26.176 26.16v288.08z m78.576-373.184c0 3.664-4.864 6.544-10.912 6.544H407.44c-6.048 0-10.928-2.88-10.928-6.544v-13.088c0-3.632 4.864-6.544 10.928-6.544h501.92c6.032 0 10.912 2.928 10.912 6.544v13.088z m0-58.912a13.104 13.104 0 0 1-13.088 13.088H409.616a13.088 13.088 0 0 1-13.088-13.088v-26.24a13.12 13.12 0 0 1 13.088-13.056h497.552a13.12 13.12 0 0 1 13.088 13.056v26.24z m-130.96 641.6h52.352v-78.56h-52.352v78.56z m-314.224 0h52.384v-78.56h-52.384v78.56z"  horiz-adv-x="1025" />

    
    </font>
</defs>
</svg>
